<svg xmlns="http://www.w3.org/2000/svg" data-name="Cake 1" viewBox="0 0 72.04238 104.4984625"
    x="0px" y="0px">
    <title>Cake</title>
    <path
        d="M71.762,7.96389c0.07191,0.31926-.4798.08847-0.23649,0.54182a1.51253,1.51253,0,0,1-1.36216,2.21138,3.40234,3.40234,0,0,0-1.47151.48025,1.29838,1.29838,0,0,1,.44145.21672,15.96635,15.96635,0,0,0-2.48636.74255,6.24348,6.24348,0,0,0-2.6134,1.51283,0.62567,0.62567,0,0,0,.07891,1.02888,2.023,2.023,0,0,0,1.50514.70883c0.1649-.01259.42657-0.05568,0.416,0.19023a0.48606,0.48606,0,0,1-.29978.50348,2.48909,2.48909,0,0,0-.53727.10637,0.80431,0.80431,0,0,0-.59413.38525A0.78162,0.78162,0,0,0,65.04,16.998a16.25229,16.25229,0,0,0,1.174,1.64946,0.34513,0.34513,0,0,1-.178.52285,0.94551,0.94551,0,0,0-.68662.76085,5.59556,5.59556,0,0,1-1.48787,1.78911,0.33556,0.33556,0,0,0-.20746.37065,1.2474,1.2474,0,0,0,.449.04548L62.35465,23.1558a7.91263,7.91263,0,0,1,3.1326,1.67454,0.91461,0.91461,0,0,1,.267,1.41,0.20656,0.20656,0,0,0-.02182.18076,10.2092,10.2092,0,0,1,.47313,2.5505,0.55648,0.55648,0,0,0,.583.53248,8.91718,8.91718,0,0,1,1.99864.49223c0.8723,0.199,1.18452,1.03715,1.60821,1.67573a13.68858,13.68858,0,0,1,1.50057,2.83866,6.11649,6.11649,0,0,1,.46414,2.84645,1.04942,1.04942,0,0,0,.71005,1.11611c1.59022,1.066,3.24224,2.11988,3.92528,4.07739a0.44585,0.44585,0,0,0,.084.1887c0.80146,0.69315.40191,1.55017,0.156,2.25261a1.0583,1.0583,0,0,0,.26745,1.18615c0.27146,0.26313.6839-.03623,0.97748-0.28123a1.751,1.751,0,0,1,.28063-0.13439c-0.21572.46618,0.065,0.61369,0.35659,0.70864,1.05121,0.34232,1.55109,1.41278,2.51727,1.88174a0.95128,0.95128,0,0,1,.30874.93864c-0.126,1.22165.81643,1.7136,1.5232,2.351a3.0696,3.0696,0,0,0,2.14476.713c0.13864-.00036.34874-0.07676,0.38464,0.17176,0.0348,0.24087-.17623.19751-0.30407,0.27351a4.47,4.47,0,0,0-1.4443,1.74147c-0.62913,1.0808-1.32724,2.1218-1.92142,3.22892a23.01646,23.01646,0,0,0-1.44092,1.84863c-0.62315,1.43572-1.61579,2.66636-2.2806,4.08a0.70767,0.70767,0,0,0-.16454.482,1.16234,1.16234,0,0,0,.38075-0.35905c0.11417,0.10712.02092,0.20172-.03319,0.2919a12.26746,12.26746,0,0,0-1.85758,3.194c-0.12692.50492-.34937,0.98515-0.5108,1.4823a2.10207,2.10207,0,0,1-.61282,1.00224,4.48749,4.48749,0,0,0-.68193,1.39829,3.70286,3.70286,0,0,0-.59649,1.57279c-0.01485,1.4954-1.18054,2.56864-1.44641,3.96361-0.14636.76776-.62008,1.50993-0.20371,2.34911a1.10673,1.10673,0,0,1-.1635.65343,8.82573,8.82573,0,0,0-.61269,3.006,2.306,2.306,0,0,1-.91864,1.50555,0.60765,0.60765,0,0,0-.03181.98727,1.11328,1.11328,0,0,1,.15564.1198c-0.12486.31866-.65665,0.41555-0.43939,0.93572,0.23438,0.5613-.2746.63466-0.61313,0.76107-1.46395.54667-3.02757,0.75845-4.49772,1.25149a36.55872,36.55872,0,0,0-4.76274,1.42488,5.42666,5.42666,0,0,1-2.22642.34189c-0.41182.036-.82159,0.098-1.23128,0.15547-1.85731.2605-3.74689,0.18525-5.595,0.54939a26.92778,26.92778,0,0,1-6.69364.18422,0.41443,0.41443,0,0,0-.477.23113,0.56608,0.56608,0,0,1-.96257.15093,2.53179,2.53179,0,0,0-1.72965-.80452,12.579,12.579,0,0,1-2.49931-.19394,9.51,9.51,0,0,1-2.50252-.54c-0.19316-.09674-0.41673-0.24386-0.56748.08714a0.35767,0.35767,0,0,1-.23944.01686c-0.22222-.73238-0.81083-0.41751-1.26007-0.42007a4.94555,4.94555,0,0,1-.70266-0.21579c-0.23294.36792,0.08758,0.7809-.1463,1.1826a2.29182,2.29182,0,0,1-.19592-0.30541c-0.11668-.273.146-0.72869-0.15433-0.82994a2.44527,2.44527,0,0,0-1.49852.01341,1.67643,1.67643,0,0,0-.77285.26524,0.21668,0.21668,0,0,1-.35461-0.023,0.29169,0.29169,0,0,1,.18553-0.3327,1.86054,1.86054,0,0,1,1.24977-.27333,0.63669,0.63669,0,0,0,.44962-0.17069,1.317,1.317,0,0,0-1.2751-.31154c-0.76749.21083-1.14724-.52652-1.85077-0.52548-0.52454.00078,0.2696-.34126,0.12219-0.628-0.40609-.11757-0.85357.32322-1.25821-0.02885-0.25763.19987,0.2123,0.48223-.18159,0.63751a8.41815,8.41815,0,0,1-1.26383-4.10108,21.33179,21.33179,0,0,0-.74539-4.08178c-0.07514-.474.265-0.74776,0.15252-1.231a69.11741,69.11741,0,0,0-2.77044-9.27375c-0.55832-1.44582-.96571-2.9492-1.48351-4.4116-0.37281-1.05288-.88422-2.05978-1.213-3.12452-0.83892-2.71664-2.59651-4.9251-3.963-7.34935a1.033,1.033,0,0,0-.31751-0.3631c-1.054-.66878-1.64911-1.89847-2.88058-2.3502a0.22225,0.22225,0,0,1-.13338-0.36718,0.31547,0.31547,0,0,1,.445-0.18231c0.42695,0.1356.59029,0.62184,1.09666,0.76783-0.12526-.2797-0.22677-0.53292-0.35035-0.77486-0.123-.24082.05154-0.33457,0.19544-0.4457,0.1929-.149.27154-0.06855,0.3216,0.14451,0.06929,0.29492.23256,0.06394,0.36482,0.0545a2.48557,2.48557,0,0,0,1.2664-.33815c-0.10545-.33727-0.65848-0.269-0.64156-0.78139a1.65089,1.65089,0,0,0,1.87453.02763,3.54356,3.54356,0,0,1,1.39466-.3163,1.40965,1.40965,0,0,0,1.09112-.71525,9.04255,9.04255,0,0,1,2.425-2.34226A1.09939,1.09939,0,0,1,24.103,46.091c0.89741,0.14643.68987-.50895,0.62657-0.90849a7.13047,7.13047,0,0,1,.708-4.21534,9.08511,9.08511,0,0,0,.489-1.27615c0.31826-1.08989,1.28868-1.60884,2.00927-2.34461A8.79939,8.79939,0,0,1,29.28016,35.996c0.75814-.466.64309-1.17521,0.91849-1.76823a19.86145,19.86145,0,0,1,1.684-2.438c1.25783-1.91005,3.2121-2.90042,5.19958-3.801a2.97883,2.97883,0,0,0,1.52962-1.389,6.76683,6.76683,0,0,1,2.46709-2.44282A31.26159,31.26159,0,0,1,47.36933,21.247a1.69105,1.69105,0,0,1,1.14743.03608c0.25331,0.07122.71422,0.24084,0.52553-.38662a0.416,0.416,0,0,1,.0694-0.2647c0.82354-1.557,1.1693-3.33093,2.18051-4.8026a1.25452,1.25452,0,0,0,.13334-0.23992c1.08015-2.69653,3.21645-3.70852,5.966-3.744a2.8463,2.8463,0,0,0,.34762-0.00557,1.02192,1.02192,0,0,0,.78067-0.08764c0.19533-.30775-0.19163-0.53166-0.3434-0.76091-0.17905-.27045-0.31965-0.55012-0.47022-0.83311a0.5147,0.5147,0,0,1,.177-0.78674,0.60743,0.60743,0,0,1,.91429.06411,7.88635,7.88635,0,0,1,1.10782,1.64946,0.72377,0.72377,0,0,0,.38288.52986c0.2964,0.019.29939-.3434,0.43355-0.53724,0.0659-.09518.11985-0.19853,0.1833-0.2955,0.11937-.18239-0.1641-0.58189.16507-0.57122a1.74586,1.74586,0,0,1,1.1392.34235c0.30388,0.2632-.02093.46183-0.05509,0.67863a0.84253,0.84253,0,0,0-.12133.75367c0.21419,0.344.30306,0.54484,0.73126,0.12463a23.48168,23.48168,0,0,1,5.30035-3.67385,0.99648,0.99648,0,0,1,1.05016-.09408,1.06106,1.06106,0,0,0,.91347-0.196A3.58194,3.58194,0,0,1,71.762,7.96389ZM55.98713,24.611c-0.0357.29756-.76348,0.02023-0.48013,0.5217,0.22646,0.40078.52456-.011,0.75964-0.09344,0.1801-.06317.582-0.13788,0.47924-0.38288-0.169-.403-0.51394.17487-0.7768-0.02756,0.09988-.33133.938-0.10231,0.58725-0.78316a5.242,5.242,0,0,0-.75206.303,0.41859,0.41859,0,0,0-.29443.41256C55.59891,24.81337,55.82471,24.59154,55.98713,24.611ZM63.748,68.33721l-0.04253-.6136a1.18572,1.18572,0,0,0-.57333,1.53979c0.48811-.12731.32468-0.69705,0.63989-0.95118,0.01883,0.14219-.09035.4677,0.24,0.20864a1.70457,1.70457,0,0,0,.52383-1.6927,0.26846,0.26846,0,0,0-.26308.10807C63.75866,67.27862,64.011,67.90225,63.748,68.33721ZM60.80127,12.95388c0.3328,0.01191.44162,0.55873,0.86406,0.3669-0.339-1.066-.3387-1.063-1.23043-0.974-0.07856.00784-.17825-0.08894-0.178,0.07542a4.02535,4.02535,0,0,1,.56895.55638,8.18917,8.18917,0,0,0-1.83223-.602,4.01928,4.01928,0,0,0,1.70159.82812C60.86273,13.25709,60.79619,13.05454,60.80127,12.95388ZM35.18149,32.17524c0.08345,0.23435-.483.38725-0.06976,0.6762,0.39471,0.276.51017-.107,0.71033-0.27248,0.17338-.14335.3079-0.33312,0.4782-0.481,0.201-.17445.11029-0.29916-0.02481-0.45262-0.14845-.16858-0.24764-0.11059-0.37911.02146a0.73018,0.73018,0,0,1-.55549.349,4.69572,4.69572,0,0,1,.43908-0.522,0.38814,0.38814,0,0,0,.0446-0.554c-0.15605-.26385-0.35728-0.1301-0.53371-0.02037a0.92066,0.92066,0,0,1-.53583.28654,1.61166,1.61166,0,0,1,.82658-0.87887,4.68684,4.68684,0,0,0-2.03695,1.413c-0.24821.26259,0.19725,0.03887,0.25294,0.15375a1.459,1.459,0,0,1-.174,1.03618c-0.78265.91131-.223,1.63665,0.16451,2.52657a8.71009,8.71009,0,0,1,1.24015-1.93328c0.19808-.22718.05851-0.34157-0.104-0.42366a1.24918,1.24918,0,0,1-.55443-1.31833C34.715,31.75876,34.687,32.50537,35.18149,32.17524ZM33.76677,71.546a1.525,1.525,0,0,0-.80322,2.18c0.42275-.43037,1.19271-0.63318.97295-1.48461,0.27493-.02394.00059,0.5667,0.39716,0.37068,0.27555-.13623.06669-0.36128,0.02777-0.54735-0.059-.28177-0.1226-0.56254-0.18588-0.85121A0.71745,0.71745,0,0,0,33.76677,71.546Zm15.75837,0.17334a1.32871,1.32871,0,0,0-.47769,1.59724,1.37539,1.37539,0,0,0,.7303-1.49027,0.17976,0.17976,0,0,0-.28012-0.08377,0.70977,0.70977,0,0,0,.31441-0.69909,4.11414,4.11414,0,0,1-.01546-1.54075,5.42438,5.42438,0,0,0,.13914-1.476,1.32409,1.32409,0,0,0-.86785,1.41932c0.00941,0.35475.28217,0.24719,0.49919,0.38169a1.54844,1.54844,0,0,0-.5683,1.4815C48.96106,71.6908,49.16532,71.81767,49.52513,71.71932ZM65.94167,36.251c-0.01548-.15491.01-0.379-0.24384-0.29752a6.75945,6.75945,0,0,0-1.65364.62129c-0.35139.23006-.13144,0.77794-0.16632,1.183-0.01048.12177-.16721,0.2461-0.00768,0.38295,0.98635-.05781.19074-1.1413,0.79838-1.43885a0.728,0.728,0,0,1-.06891.5462c-0.1416.29117,0.12852,0.19067,0.26444,0.2028,0.082,0.23795-.24855.2307-0.25615,0.38646,1.17864,0.27059,1.35871-.78734,1.82106-1.51794a0.49807,0.49807,0,0,1-.05788.563,0.42354,0.42354,0,0,0-.09834.44516c0.12807,0.17491.29358-.00607,0.43885-0.02454,0.75979-.09657.67275-0.74586,0.76677-1.24936,0.08264-.44245-0.04714-0.60824-0.57612-0.48052A1.9354,1.9354,0,0,0,65.94167,36.251ZM82.3219,53.12857c-0.42624-.08223-0.85094-0.17382-1.27914-0.24423a1.54139,1.54139,0,0,0-1.41346.80871,0.19222,0.19222,0,0,0,.068.24038c0.10194,0.07535.15908,0.04387,0.18029-.07635,0.02741-.15548.107-0.27288,0.2771-0.21314,0.13018,0.04571.08853,0.17241,0.08552,0.29181a0.66107,0.66107,0,0,0,.509.65775c0.328,0.095.37063-.2624,0.48465-0.46113a1.37747,1.37747,0,0,1,1.09161-1.00775,3.49365,3.49365,0,0,1-1.12666,1.6785l0.75964,0.09076a0.92891,0.92891,0,0,1-.5213.375,1.279,1.279,0,0,0-.902.96477,0.84,0.84,0,0,1-.183.441,13.72062,13.72062,0,0,0-1.29458,2.07541,1.21141,1.21141,0,0,0-.28289.97572,34.54533,34.54533,0,0,1,3.982-5.48564,1.08127,1.08127,0,0,0,.55673-0.8038C83.179,53.06,82.65237,53.26821,82.3219,53.12857ZM64.05707,62.43048a2.92886,2.92886,0,0,1,.0479-1.09592c-0.5967,1.006-1.671,1.60159-1.40746,2.90759a4.04239,4.04239,0,0,0,1.3687-1.83325c0.06751,0.11718-.11253.55012,0.29805,0.23042a0.87783,0.87783,0,0,1,.66348-0.35277,2.93317,2.93317,0,0,0-1.24289,2.81082c0.4907-.84793,1.44617-1.11276,1.43193-2.18917a20.2,20.2,0,0,1,.38142-2.90455c-0.28172.19346-.40843,0.28051-0.5352,0.36752A3.30347,3.30347,0,0,0,64.05707,62.43048ZM51.44244,61.02481c-0.059.31914-.51384,0.2972-0.54524,0.65783-0.07414.85136-.17066,1.70081-0.25813,2.551l0.23027,0.03623a11.66078,11.66078,0,0,0,.56869-3.245l0.349-1.23623a6.32815,6.32815,0,0,0-1.217.55732l0.00748,0.00843c-0.00715-.4691.43521-0.46658,0.69593-0.64069a0.98165,0.98165,0,0,0,.56842-0.5533c0.14369-.675.27477-1.35261,0.42385-2.093a11.51668,11.51668,0,0,0-1.9626.60388,18.39507,18.39507,0,0,0-3.4325,2.49638,2.57057,2.57057,0,0,0-.83534,1.72642,20.33016,20.33016,0,0,1-.25767,2.55574c0.84571-.17555,1.1365-1.01388,1.8883-1.30558,0.81226-.31513,1.40374-1.08357,2.26547-1.40944a1.02534,1.02534,0,0,0,.82393-1.01092C50.91283,61.24195,51.17834,61.13953,51.44244,61.02481Zm8.80691-38.04713c0.19858,0.02508.333,0.08475,0.09089,0.2544-0.38568.27029-.7809,0.527-1.17208,0.78943a12.60151,12.60151,0,0,0,4.15714-2.84684,1.10722,1.10722,0,0,0,.42631-0.69145c0.00688-.85931.86249-1.07132,1.21263-1.6426l-0.64946-.59342a1.33426,1.33426,0,0,1-.38714.74622,1.1989,1.1989,0,0,0-.65595-1.56282,0.61776,0.61776,0,0,0-.95689.10421,7.04,7.04,0,0,0-.65282,1.04087,0.4745,0.4745,0,0,1-.305.33539c-0.20479.0277-.22062-0.17777-0.303-0.3112-0.40108-.64981-0.49144-0.65891-0.9513-0.08919a3.57009,3.57009,0,0,1-1.17834.81454,0.5211,0.5211,0,0,1-.68468-0.16648,0.2818,0.2818,0,0,1,.06338-0.42218A2.5652,2.5652,0,0,1,60.2182,17.787c0.637,0.0571.51918-.27943,0.38872-0.53342a4.98849,4.98849,0,0,1-.33166-1.81537,0.48453,0.48453,0,0,0-.21-0.46965,5.34743,5.34743,0,0,0-2.27229-.63861,2.10028,2.10028,0,0,1-.87731-0.1611,0.44714,0.44714,0,0,1-.27672-0.50989,0.31519,0.31519,0,0,1,.39973-0.28338,1.38735,1.38735,0,0,0,1.36957-.82308c-0.47817.18481-.718-0.51563-1.20819-0.22424-1.52983.90938-3.49089,1.25107-4.22336,3.21042a0.27056,0.27056,0,0,1-.08255.11064A4.9914,4.9914,0,0,0,51.768,17.52389c-0.62188,1.22349-.95193,2.57064-1.47,3.84383a5.88769,5.88769,0,0,0-.48526,2.61791,0.83048,0.83048,0,0,0,.39328.74069,5.07969,5.07969,0,0,0,4.62355.65115,0.51091,0.51091,0,0,0,.4048-0.60819,0.47558,0.47558,0,0,0-.43241-0.47056c-0.37442-.01767-0.15905.40071-0.32512,0.5603-0.28475-.63508-0.86584.05662-1.23677-0.2887a2.78945,2.78945,0,0,1,.29017-0.16576c0.6343-.2693.63559-0.26791,0.3709-0.82235a0.10826,0.10826,0,0,1,.04506-0.16914c0.41736-.14134.06529-0.33447,0.01054-0.46523a1.37316,1.37316,0,0,1-.30955-0.62755,0.285,0.285,0,0,1,.33977.03744,2.70157,2.70157,0,0,1,.55343,1.09365,0.36572,0.36572,0,0,0,.53663.227c0.17139-.09925.01881-0.32076-0.1033-0.45188a1.56651,1.56651,0,0,1-.46342-0.73477,3.80844,3.80844,0,0,0,.56575-0.26288c0.77293-.524,1.021-0.46188,1.46536.40248a0.23455,0.23455,0,0,0,.238.19032,0.19873,0.19873,0,0,0,.11275-0.28383,1.32023,1.32023,0,0,0-.89281-1.13522,0.70089,0.70089,0,0,1,.9802.26413c0.17693,0.28781.44329,0.21553,0.72927,0.08155,0.26571-.1245.39768-0.30605,0.267-0.53467-0.29793-.52139-0.15723-0.77746.37273-1.02755a7.41741,7.41741,0,0,0,1.01381-.82993c0.33764-.24509.37854-0.181,0.44147,0.24265,0.0558,0.37587.12943,0.84367,0.71269,0.40538a0.69346,0.69346,0,0,1,.7402-0.09165,3.251,3.251,0,0,1-.40764.31c-0.38493.2003,0.09429,0.53428-.12751,0.75327,0.25045,0.15069.37124-.05841,0.53019-0.183,0.37431-.29339.756-0.57732,1.13478-0.86509a1.8245,1.8245,0,0,1-.95082,1.13593,0.73229,0.73229,0,0,0-.42344,1.04946,8.69783,8.69783,0,0,0,1.9681-1.4857c0.159,0.4066-.14886.528-0.34485,0.70461a20.47118,20.47118,0,0,1-2.37366,1.66009A22.1205,22.1205,0,0,0,57.116,24.4827,7.73682,7.73682,0,0,0,60.24935,22.97768Zm-16.4192,1.78819a2.72642,2.72642,0,0,1,.73554-0.71874c0.13179-.09433.3043-0.19171,0.18564-0.38054a0.29,0.29,0,0,0-.43074-0.03768,1.50953,1.50953,0,0,0-.74715,1.00719c-0.06814.32165,0.14428,0.18051,0.28292,0.10416-0.17885.62791-.91332,1.08449-0.41431,1.92164-0.41593-.13093-0.34961-0.71745-0.76863-0.48764-0.75126.41206-.17772,0.895,0.09741,1.4251-1.00686-.61845-1.00686-0.61845-1.77866.52287,0.07844,0.29074.46443-.00466,0.54881,0.29792a1.17691,1.17691,0,0,1-1.21552-.14746,0.23722,0.23722,0,0,1-.11727-0.28759c0.01514-.06239.05789-0.07208,0.14348-0.05591,0.76795,0.14513.8109-.53619,1.10642-0.97428-0.50314.198-.82355-0.61117-1.32178-0.19837a1.7366,1.7366,0,0,0-.67377,1.29449,1.12743,1.12743,0,0,0,.50508,1.13247c0.44516,0.32351.94849,0.051,1.416,0.292a2.16422,2.16422,0,0,1-1.71472-.00208c-0.40182-.07352-0.63212.13491-0.55373,0.42752a1.11493,1.11493,0,0,0,.96243.96054,10.0859,10.0859,0,0,1,1.87725.23316,36.4724,36.4724,0,0,0,6.80378.53306,29.1799,29.1799,0,0,0,7.65581-.73625,5.93644,5.93644,0,0,1,.94093-0.5527c0.93689-.16972,1.85641-0.43545,2.783-0.66206,1.06595-.12019,2.08069-0.4825,3.13-0.66643a0.60731,0.60731,0,0,0,.57248-0.73651c-0.22313.05883-.39493,0.10924-0.5691,0.14922-1.01874.23389-2.03976,0.45821-3.05537,0.70492-0.16235.03943-.556,0.01991-0.24566,0.39219-1.15545-.30231-2.22771.26216-3.50189,0.40922,0.54436-.37794,1.09971-0.23949,1.47074-0.58472-0.11584-.20543-0.45877.02749-0.53088-0.26305a0.38434,0.38434,0,0,1,.40877-0.059,5.97431,5.97431,0,0,0,3.10722-.32832,0.32782,0.32782,0,0,0,.31588-0.36764c-0.05484-.32474-0.2553-0.10905-0.41979-0.09053a12.94829,12.94829,0,0,0-1.73651.43626c-0.12972.03306-.43268,0.09659-0.39982-0.07619,0.15018-.78917-0.42589-0.86453-0.8939-0.85345-1.66986.03954-3.328-.17762-4.99506-0.17106a2.41829,2.41829,0,0,1-1.23484.09151c0.16223-.53308.66985-0.2678,1.00092-0.44652A0.88093,0.88093,0,0,0,51.688,27.043c-0.21307.0093-.48988,0.22943-0.57906-0.09646-0.10665-.38968.38922-0.06742,0.46487-0.3411a2.21663,2.21663,0,0,0-.88258-0.44358c-0.59628-.25724-1.36455-0.32322-1.50151-1.19484a0.73852,0.73852,0,0,0-.423-0.30861,0.6422,0.6422,0,0,1-.3543-0.82814,3.36763,3.36763,0,0,0,.31661-1.36785,0.44378,0.44378,0,0,0-.468-0.53111c-0.90662.30939-1.965,0.29526-2.6256,1.15942,0.36606,0.08782.681-.51725,1.1158-0.12324a0.45073,0.45073,0,0,1-.12507.15564,5.74987,5.74987,0,0,0-1.91237,1.1223A0.96619,0.96619,0,0,1,43.83015,24.76587Zm-18.55,41.43688a1.28273,1.28273,0,0,1-.52183-0.9148c-0.38872-.94513-0.74422-1.9039-1.13283-2.90934a0.41593,0.41593,0,0,0-.06347.395c0.783,2.10085,1.38187,4.25884,1.98126,6.41636,0.55635,2.00265,1.24671,3.961,1.65267,6.0145,0.54892,2.77663,1.29094,5.51522,1.95951,8.26786a2.5425,2.5425,0,0,1,.037.96287,1.67246,1.67246,0,0,0,1.20648,1.81969l-2.15-11.10618a7.40686,7.40686,0,0,1,.73685,2.44395c0.541,2.66505,1.1,5.32683,1.60115,7.99939,0.10016,0.53409.243,0.68626,0.75555,0.507,0.22031-.077.5726-0.22717,0.67335,0.08136,0.05435,0.16643.008,0.28954,0.22563,0.25525,0.16439-.02593.33673-0.08243,0.29708-0.30053-0.14257-.78429.34059-0.20571,0.61308-0.25243-0.45525-.79192.17894-1.62628-0.17366-2.43081-0.06551-.1495-0.06009-0.45.26525-0.357,0.18262,0.05215.12219-.04741,0.11349-0.1129-0.16138-1.21217-.316-2.42542-0.50074-3.63409a0.55937,0.55937,0,0,0-.2451-0.62461,28.00011,28.00011,0,0,0-.23528,2.99361c-0.50707-2.71394.34109-5.49213-.48041-8.24077l-0.074.966a0.82966,0.82966,0,0,1-.20838-0.68993,38.60014,38.60014,0,0,0-.59669-7.5517c-0.28294-1.43164-.38834-2.8871-0.79864-4.30766a14.18415,14.18415,0,0,0-1.76631-3.745,15.8521,15.8521,0,0,0-2.89138-3.05921c-0.75422-.6699-1.55-1.49661-2.77571-1.06409a0.46046,0.46046,0,0,1-.34178-0.001c-0.51784-.3112-1.15345.15346-1.65375-0.26058a0.13714,0.13714,0,0,0-.21176.06642,0.94925,0.94925,0,0,1-.39822.26271,0.393,0.393,0,0,0,.45561.32184c0.75842-.21327.9168,0.44364,1.34517,0.83605a0.41511,0.41511,0,0,1-.437-0.10851,0.73535,0.73535,0,0,0-.93856-0.36538c-0.35227.26327,0.00255,0.6768,0.14028,0.98263,0.11546,0.25637.11659,0.79123,0.39477,0.727,0.84211-.1945.70983,0.518,0.83091,0.86044a0.84729,0.84729,0,0,0,.97786.65352L22.217,55.87488l0.24957-.07983c1.23834,3.92448,2.47669,7.849,3.74343,11.86346a2.38994,2.38994,0,0,0-.47013-0.42826,1.68054,1.68054,0,0,0-.09193-0.60978q-0.77474-2.40972-1.52566-4.82709c-0.31735-1.02282-.6096-2.05339-0.92611-3.07646a0.53662,0.53662,0,0,0-.53969-0.5c-0.11325.00578-.2232-0.03145-0.26881,0.12741A1.12658,1.12658,0,0,0,23.238,59.442a0.83081,0.83081,0,0,0-.17.93476C23.84072,62.3046,24.549,64.25827,25.2801,66.20275ZM62.33516,83.01a19.37522,19.37522,0,0,1,.12372-2.39095c-0.9725.74676-.72844,1.77629-1.15529,2.626h1.06387l-0.06192.98719c-0.27331-.24454.20806-0.98676-0.60453-0.81406-0.21465.04559-.48422,0.07584-0.44862,0.2981,0.05249,0.32775-.34488.69089,0.01174,0.94224a0.46419,0.46419,0,0,1,.19988.57588c-0.06116.33588-.06739,0.68147-0.10376,1.02219-0.031.29015-.25521,0.67221,0.02719,0.84079a1.1182,1.1182,0,0,0,.966-0.10367c0.75135-.32748,1.43888-0.98578,2.25883-0.92319A17.27718,17.27718,0,0,0,66.479,85.698a0.44032,0.44032,0,0,0,.43994-0.28116,19.01859,19.01859,0,0,0,.7935-2.55119c0.19625-1.32891.54455-2.61323,0.81884-3.91821a9.57927,9.57927,0,0,0,.30367-2.05617,21.5828,21.5828,0,0,0-1.14532,4.04484,0.75273,0.75273,0,0,1-.14325-0.80246,27.92036,27.92036,0,0,1,1.2649-4.12c0.34029-1.0191.73413-2.02363,1.16377-3.00863a25.14439,25.14439,0,0,0,.6682-2.9665c0.41814-1.38855.564-2.86122,1.03369-4.24445,0.48186-1.41915.91206-2.85617,1.367-4.28222,0.27618-.86569,1.22936-1.635.59885-2.711a0.35973,0.35973,0,0,1,.1214-0.03881,0.42333,0.42333,0,0,0,.45853-0.54149c-0.06034-.33579-0.44342-0.16707-0.65855-0.19632a5.86346,5.86346,0,0,1-1.91983-.32271c0.85526,0.09178,1.64861-.32048,2.63948-0.19366-0.37125-.38916-0.239-1.03162-0.88384-0.94589a1.819,1.819,0,0,1-1.63149-.54573,3.26066,3.26066,0,0,0-3.21167-.3789l0.01568,0.01844c0.09222-.3492-0.12328-0.36493-0.38279-0.3824a0.49513,0.49513,0,0,0-.56791.4642c-0.27781,1.36-.54364,2.72239-0.82314,4.082-0.40623,1.97609-.8299,3.94861-1.22843,5.92622-0.34769,1.72521-.67571,3.45448-0.99534,5.18509-0.02425.13128-.27186,0.39948,0.06785,0.42208a0.39075,0.39075,0,0,0,.47678-0.37571c-0.01381-.50663.13356-0.99548,0.15915-1.50334a6.877,6.877,0,0,1,.367-2.235,17.22235,17.22235,0,0,1-.23676,3.08732c-0.05815.54976-.16211,1.15416,0.76513,0.82069a2.02847,2.02847,0,0,1,.64913-0.01006,0.96631,0.96631,0,0,1-.534.30388c-1.0712.11876-1.07538,0.12836-1.16583,1.20457a21.56293,21.56293,0,0,1-.66278,3.8135,15.6474,15.6474,0,0,1,.18869-2.0261,13.80019,13.80019,0,0,0,.33569-2.449c-0.01847-.21559-0.01082-0.41693-0.31149-0.441-0.31076-.02488-0.221.2027-0.26542,0.36114a42.40381,42.40381,0,0,0-.90394,4.22615C63.18278,77.98307,62.77,79.82,62.58036,81.69682A2.45869,2.45869,0,0,1,62.33516,83.01Zm9.54108-33.63342a2.91364,2.91364,0,0,0-.57675.20714c-0.614.3771-1.31248,0.05142-1.92662,0.23474a24.7141,24.7141,0,0,1-6.58173,1.458c-2.65875.0521-5.293,0.48368-7.95521,0.56188a23.91181,23.91181,0,0,0-2.73421-.00236,27.31817,27.31817,0,0,1-6.49313.12134,13.53951,13.53951,0,0,0-2.40536-.1218,27.5279,27.5279,0,0,1-5.60859-.01033,15.10425,15.10425,0,0,0-4.36485.07915c-1.51339.26286-3.05018,0.40138-4.58148,0.543a1.23048,1.23048,0,0,1-1.1887-.40114,32.38923,32.38923,0,0,0,6.779-.59692A23.203,23.203,0,0,1,28.847,50.247a8.66329,8.66329,0,0,1-2.635-1.27378,1.142,1.142,0,0,0-1.71512.1313c-0.14245.11988-.55209,0.10184-0.3812,0.44308,0.16279,0.32507.43887,0.17581,0.70954,0.09135,0.22265-.06947.46355-0.38084,0.75242-0.0289a4.62274,4.62274,0,0,0-.82931.5285,7.63069,7.63069,0,0,0,1.92937.995,3.1463,3.1463,0,0,1-1.61018-.48152,0.66272,0.66272,0,0,0-1.08245.19059c-0.13234.18009-.27467,0.46013-0.5269,0.24447-0.19911-.17025.05494-0.41178,0.07983-0.6255a1.52181,1.52181,0,0,1,.22429-0.25069c0.0647-.12551.34287-0.17169,0.19191-0.37083-0.17742-.23407-0.31376.0269-0.46018,0.08857a0.20384,0.20384,0,0,1-.28067-0.00469c0.02352-.4276.47164-0.79344,0.27721-1.29671,0.48633,0.82654.92966,0.02775,1.19054-.10979,0.65026-.34283-0.34122-0.67546-0.06569-1.12134-0.32819.19977-.58063,0.35408-0.83369,0.50735A6.16263,6.16263,0,0,0,21.021,50.76585c-0.21132.51183-.11708,0.85191,0.38851,0.88481a8.37706,8.37706,0,0,0,1.18832.33334,2.69236,2.69236,0,0,1,1.83973.46087A13.99769,13.99769,0,0,0,26.069,53.363a4.39373,4.39373,0,0,1,1.22006.97731c0.61579,0.66317,1.44089,1.03053,2.0369,1.68514a0.35447,0.35447,0,0,0,.56686.06328,1.64085,1.64085,0,0,1,1.1667-.10778,6.049,6.049,0,0,1-1.48086.58973A3.205,3.205,0,0,1,28.25615,55.554a0.92409,0.92409,0,0,0-.18458-0.09079,3.26606,3.26606,0,0,0,1.65915,1.73636,0.84166,0.84166,0,0,0,.57469.08865,7.62353,7.62353,0,0,0,3.57821-1.8212,24.2185,24.2185,0,0,1,5.12953-2.39946,0.22858,0.22858,0,0,1,.33348.09514c-0.00617.18048-.16433,0.15372-0.24813,0.21839a1.04473,1.04473,0,0,0-.595.306c0.15087,0.42886.38182-.04522,0.59064-0.0503a1.33719,1.33719,0,0,1,.18653.06758,5.65673,5.65673,0,0,1,2.08531.82178,5.27361,5.27361,0,0,0,1.14672.749,20.33715,20.33715,0,0,1,4.0266,2.00781,0.87306,0.87306,0,0,1,.58128,1.13747,4.188,4.188,0,0,1,.6433-0.72975,16.78584,16.78584,0,0,0,3.20623-2.07419,3.56288,3.56288,0,0,0,.95471-0.31528,4.25674,4.25674,0,0,1,1.20783-.90792c0.15363-.092.36939-0.35372,0.51984-0.13314,0.21657,0.31754-.27423.24272-0.35985,0.47124A1.8994,1.8994,0,0,0,53.791,54.652a1.58042,1.58042,0,0,1,2.03765.43778,1.99411,1.99411,0,0,0,.34356.21749c1.264,0.90958,2.58981,1.72281,3.9089,2.54845a2.5654,2.5654,0,0,0,2.56483-.00624A43.43878,43.43878,0,0,0,67.04,53.99295c0.70137-.60405,1.30318-1.41968,2.48675-0.72339a15.02947,15.02947,0,0,0,1.58183.58946,19.6649,19.6649,0,0,0,3.02625,1.21181c1.18009,0.28675,1.17533.30668,1.39135-.84922,0.01274-.06812.0226-0.13682,0.032-0.20551,0.03752-.27426-0.02744-0.45253-0.35967-0.40835-0.24955.03317-.49911,0.01657-0.75444,0.061a4.59506,4.59506,0,0,1-1.8978.15869A12.01537,12.01537,0,0,1,74.7043,53.357a2.454,2.454,0,0,0,1.86892-.97218c0.06824,0.30869-.28172.41766-0.08165,0.64215l0.98078-.98282c0.08977,0.41562-.43007.49066-0.30876,0.87255a0.99455,0.99455,0,0,0,.51285-0.45715c0.0679-.15217.17788-0.38555,0.40327-0.26553,0.3903,0.20784.51008-.13565,0.63991-0.32349a1.474,1.474,0,0,1,.674-0.53714c1.17851-.52514,1.5032-1.16452,1.20168-2.212l-1.21458.92448a3.3146,3.3146,0,0,1,.73454-0.93286c0.105-.14364.48516-0.087,0.336-0.3944a0.56973,0.56973,0,0,0-.59952-0.25734c-0.19349.00923-.51987,0.08608-0.55928-0.13812-0.10644-.60565-0.79522-0.78565-0.914-1.36757-0.04688-.22974-0.31224-0.41166-0.457-0.22553-0.28021.36036-1.019,0.1217-1.01488,0.82559a0.50765,0.50765,0,0,1-.38629.24559q-1.60488.77137-3.19493,1.57338c-0.12435.06245-.39727,0.01551-0.24133,0.34729,0.44082,0.93787.74535,1.07884,1.71372,0.71984,0.21414-.07939.43958-0.12787,0.65858-0.19462,1.13861-.347,1.13847-0.34745.88064-1.44964,0.52529,0.01077.12942,0.92817,0.74547,0.79689a3.14035,3.14035,0,0,0,1.11956-.66489c0.60269-.44332-0.002-0.67131-0.28162-1.02989,1.04581,0.38818,1.07009.66212,0.26136,1.50617a28.31191,28.31191,0,0,1-3.79061,1.52c-0.25779.088-.6298-0.00647-0.43153,0.51328,0.17106,0.44847.37438,0.36237,0.72786,0.24289,1.01534-.34317,2.0247-0.69777,3.01141-1.11684,0.75649-.32133.78385-0.38459,0.46-1.1825,0.23657,0.27382.82113,0.39227,0.58715,0.87872-0.18175.37793,0.06522,0.86647-.41962,1.30158a0.92975,0.92975,0,0,0,.07453-0.84652,0.64338,0.64338,0,0,0-.63634.13812,17.51082,17.51082,0,0,1-3.40581,1.20748c-0.25195.05538-.07861,0.52254-0.3466,0.293a0.63857,0.63857,0,0,0-.75447.04768,6.33863,6.33863,0,0,1-1.72834.32046,10.68791,10.68791,0,0,1,1.89457-.62633c0.42633-.0819.46363-0.18955,0.34442-0.57134-0.10532-.33722-0.17044-0.41805-0.55469-0.30667a12.64892,12.64892,0,0,1-3.23973.679c1.01454-.329,2.03583-0.62548,3.05745-0.92076,0.14326-.04141.33713,0.00423,0.34221-0.24388a1.01327,1.01327,0,0,0-1.3155-.9003c-0.44854.16649-.90336,0.316-1.35312,0.47929a36.46273,36.46273,0,0,1-3.645,1.04279,1.46184,1.46184,0,0,1,.28525-0.21664c1.36843-.36549,2.70364-0.83337,4.03953-1.29975,0.23846-.08325.5116-0.11613,0.486-0.46643a1.2101,1.2101,0,0,0,.86219-0.0597A12.3921,12.3921,0,0,0,75.4404,47.8568C74.22268,48.291,73.1341,49.0445,71.87624,49.37657ZM33.32846,36.71362a4.32037,4.32037,0,0,1,.22117-0.71674,0.37353,0.37353,0,0,0,.02763-0.49,3.765,3.765,0,0,1-.806-1.87321,0.75132,0.75132,0,0,0-.39331.56181c0.34231,0.829.31366,1.80038,0.95138,2.51371a2.49793,2.49793,0,0,1,.45,1.14854c-0.80617-1.10266-1.57947-2.02774-1.54-3.32714-0.275-.01059-0.21195.26068-0.37617,0.318a0.58444,0.58444,0,0,0-.54273.66206,2.12929,2.12929,0,0,0,.01235,1.04847c0.57667,0.49643.35628,1.20755,0.63343,1.76872a2.01543,2.01543,0,0,0,.43991.60173,7.613,7.613,0,0,0,2.55945,1.39868,2.79807,2.79807,0,0,1-1.23256-.07256,27.493,27.493,0,0,0,3.1304,1.44106,12.00166,12.00166,0,0,0,4.98483,1.019A12.14177,12.14177,0,0,0,44.42,42.50331,13.34387,13.34387,0,0,1,47.1011,42.468q3.43921,0.00247,6.8784.00579a2.10683,2.10683,0,0,0,1.15589-.23776l-0.87118-.08473a0.96825,0.96825,0,0,1,.58006-0.22553c1.74242,0.18694,3.27842-.64,4.91115-0.99325a0.70139,0.70139,0,0,0,.6185-0.593c-0.19756-.12918-0.39832.19127-0.57031-0.05985a3.938,3.938,0,0,0,1.66577-.79073,11.98389,11.98389,0,0,1,1.76769-1.393,1.43279,1.43279,0,0,0,.337-0.34677,0.93913,0.93913,0,0,0,.08214-1.0439c-0.13975-.24735-0.4274.11913-0.66254,0.14059a9.58838,9.58838,0,0,1-1.7988.4099c0.71571-.30494,1.44877-0.55144,2.18239-0.79618a0.38876,0.38876,0,0,0,.27115-0.62132c-0.1278-.31676-0.2261-0.34882-0.54509-0.2519a11.28316,11.28316,0,0,1-2.25891.5722c-0.02574-.17732.04809-0.21868,0.15-0.22773a15.90039,15.90039,0,0,0,2.10688-.58076c0.28379-.06481.357-0.17584,0.21059-0.52952a0.88766,0.88766,0,0,0-1.34473-.508,8.23017,8.23017,0,0,1-2.34945.4799c0.67622-.276,1.40592-0.35375,2.07006-0.65421,0.27746-.12552.88063-0.05478,0.76154-0.39578a1.2712,1.2712,0,0,0-1.15553-.72916,1.00844,1.00844,0,0,0-.26469.07052,11.8499,11.8499,0,0,1-1.72317.43709,6.31317,6.31317,0,0,1-2.294.33751l3.87036-1.00762-0.01494-.17322a10.06628,10.06628,0,0,0-3.72364.10661c0.51343-.42929,1.03239-0.26524,1.33881-0.64139-0.90173.24364-1.911-.099-2.73885,0.58114a0.49912,0.49912,0,0,1-.78737-0.05989,2.02238,2.02238,0,0,0-1.24957.07768,11.81048,11.81048,0,0,0-3.041.52836,0.97946,0.97946,0,0,1-.72448.12595c-0.7681-.50683-1.4993-0.01229-2.24172.00487a20.18973,20.18973,0,0,1-2.96016-.0419,5.39273,5.39273,0,0,1,1.45312-.33252c-1.15925-.05247-2.07973-0.44638-3.07481-0.44223-1.43346.006-2.635-.76955-3.91351-1.25486a1.84325,1.84325,0,0,0-2.163.69653H37.792a20.88759,20.88759,0,0,0-2.973,3.9129,8.98614,8.98614,0,0,1,.90777-1.83338c0.06725-.1449.50648-0.32,0.07581-0.51482a0.46027,0.46027,0,0,0-.66285.16961C34.45373,34.69977,33.98141,35.7626,33.32846,36.71362ZM64.89564,43.49L64.91007,43.503a0.46649,0.46649,0,0,1,.48776-0.34157c0.38108-.11074.7602-0.22814,1.155-0.34728a0.82242,0.82242,0,0,0-1.17936-.44475,2.1285,2.1285,0,0,1-.58008.19278,8.30927,8.30927,0,0,1-2.21009.4364c0.5855-.22665,1.0312-0.32395,1.46143-0.45282,0.59184-.17727.88829-1.00289,1.6137-0.75641a1.288,1.288,0,0,0,.92188-0.06175c1.02469-.38743,2.059-0.766,3.03757-1.25261a3.06643,3.06643,0,0,0,1.618-1.25164c-2.10924.10775-3.5632,1.59635-5.38441,2.18285-1.83085.58961-3.77289,0.77773-5.62139,1.73257a2.6289,2.6289,0,0,1,.70776-0.63348c-0.63284.13028-1.25071,0.2782-1.87585,0.38228-1.808.30106-3.63355,0.51515-5.42448,0.89439a35.86138,35.86138,0,0,1-5.40458.61126,37.59178,37.59178,0,0,1-5.74556-.06634,44.08053,44.08053,0,0,1-5.8343-.90057,9.69563,9.69563,0,0,1-5.91322-4.0358c-0.18952-.27226-0.41713-0.518-0.65385-0.809-0.044,1.89085,1.44887,2.895,2.29972,4.25147a20.45683,20.45683,0,0,1-3.61045-3.59224,12.68872,12.68872,0,0,1-.57678,1.48942,1.3393,1.3393,0,0,0,.26412,1.63192c0.07882,0.0964.10838,0.29209,0.27967,0.22515a0.40665,0.40665,0,0,0,.17555-0.276,0.92243,0.92243,0,0,1,.56379-0.76779c-0.10454.361-.1871,0.66361-0.28,0.963a0.95073,0.95073,0,0,0,.6952,1.25516c0.46652,0.15032.34376-.41056,0.56743-0.57275,0.03421-.02481.06382-0.056,0.21073-0.1866-0.15507.54947-.25218,0.98521-0.40126,1.40238-0.29141.81549,0.64718,0.64684,0.85328,1.11624a9.35057,9.35057,0,0,0-1.03127-.32884l-0.23191,1.327c-0.11477-.88547.22531-1.9307-1.05695-2.27963a7.11712,7.11712,0,0,0-.19336,1.716c-0.37464-1.25662-.00837-2.653-0.769-3.9953a16.39676,16.39676,0,0,0-.49185,3.18776,1.65052,1.65052,0,0,1-.07778-1.24852,10.89051,10.89051,0,0,1,.67518-3.30115c0.20319-.48466.35924-0.9889,0.548-1.4799,0.05-.13.1374-0.24913-0.017-0.3546-0.16457-.11241-0.26672.023-0.33876,0.12892a12.692,12.692,0,0,0-1.85784,3.19369,6.97939,6.97939,0,0,0,.0013,4.46484,1.16789,1.16789,0,0,0,.93465.965,5.85716,5.85716,0,0,1,1.50221.46033,30.13392,30.13392,0,0,0,6.26966,1.95808,6.243,6.243,0,0,0,2.36942.23977,6.74482,6.74482,0,0,1,2.36643.05823l-0.76592.08a52.843,52.843,0,0,0,7.57559.02607,1.17308,1.17308,0,0,1-.82468.26262,65.67759,65.67759,0,0,0,10.98221.00243c-3.19874-.33309-6.28829-0.12381-9.368-0.2616a0.30188,0.30188,0,0,1,.19642-0.07915q4.48479-.00428,8.96957-0.0019a2.98689,2.98689,0,0,1,.68183.07947,3.48327,3.48327,0,0,0,2.28819-.25633,3.29359,3.29359,0,0,1,.9289-0.53549,37.161,37.161,0,0,0,4.43082-.73328,0.84807,0.84807,0,0,1-.38019-0.27463,6.39072,6.39072,0,0,0,3.33271-.59336c-0.75005-.04811-1.47353.27129-2.224,0.18519,2.69627-.707,5.42375-1.25594,8.06143-2.16335a2.30308,2.30308,0,0,0,1.7822-2.05585,34.24753,34.24753,0,0,1-10.27383,3.12785c1.50048-.456,3.02027-0.84921,4.54189-1.23516a0.59155,0.59155,0,0,0,.57615-0.40888,5.50758,5.50758,0,0,0-.19525-1.21244,0.356,0.356,0,0,0-.25531-0.03337,7.06739,7.06739,0,0,0-1.61163.54628c-0.31156.18717-.07171,0.697-0.13888,1.05534a0.18828,0.18828,0,0,1-.079.05242c-0.14342-1.0611-.14333-1.06085-1.22423-0.72426a2.74259,2.74259,0,0,1-.39328.11264,9.76673,9.76673,0,0,1-2.28761.43844c0.90965-.29983,1.82817-0.55661,2.7406-0.83356,0.97164-.29487.96159-0.32143,0.46541-1.22744a0.6768,0.6768,0,0,0-1.02787-.38944A4.0719,4.0719,0,0,1,64.89564,43.49Zm-24.825,19.5753,0.14,0.01964c0,0.22908.01615,0.45946-.00251,0.687-0.17836,2.174-.43558,4.3445-0.52753,6.522-0.12737,3.01651-.40621,6.02269-0.52862,9.03834-0.04229,1.0418.01332,2.09182-.09426,3.12576a43.058,43.058,0,0,0-.05326,5.128c0.00376,0.2494.06709,0.40346,0.34395,0.402a9.13835,9.13835,0,0,1,3.57438.90406c0.1303,0.0545.36513-.02709,0.39284,0.18631,0.02517,0.19382.07794,0.332,0.28787,0.26989a0.33268,0.33268,0,0,0,.20578-0.39357c-0.062-.75573.04221-1.50716-0.07786-2.27584a10.54094,10.54094,0,0,1-.17642-2.54651c0.20191-2.31893.36167-4.64151,0.54823-6.96182,0.057-.709.15518-1.41463,0.21937-2.12319a27.74991,27.74991,0,0,0,.33125-4.059C44.647,70.86573,44.75326,70.5784,44.478,70.68c-0.15329.0566-.23831,0.20442-0.34632-0.01553-0.08207-.16714.08363-0.23858,0.15751-0.34645a1.14272,1.14272,0,0,0,.51327-0.66015c0.07939-1.79541.03849-3.59817,0.2763-5.38457,0.10962-.82346-0.0001-1.68172.16918-2.47006a3.51413,3.51413,0,0,0-1.57306-3.84611,3.2818,3.2818,0,0,1-1.0209-1.02455A3.36357,3.36357,0,0,0,40.70221,55.343a4.63112,4.63112,0,0,0-3.25339-.1123c-0.29113.10454-.64149,0.12337-0.92466,0.2161a4.33575,4.33575,0,0,0-1.897,1.04783c0.42233,0.00131.64887-.37272,1.096-0.12945a12.56457,12.56457,0,0,0-4.518,3.00076,8.70517,8.70517,0,0,1,3.0094-1.67491c-0.85708.25837-.52664,0.93434-0.338,1.23439,0.28231,0.44911.08493,0.39608-.21495,0.55839-0.50147.27141-1.153,0.53347-.95336,1.30394,0.11909,0.4597.0958,0.92856,0.19924,1.38174,0.22521,0.98674.23221,0.98545,1.2609,0.88642a0.63746,0.63746,0,0,0,.12315-0.03828c-0.07727-1.13013-.2878-2.24246-0.40169-3.369,0.59231,2.11357.68067,4.31653,1.17375,6.45738a17.48868,17.48868,0,0,0,.02279-4.33913l0.17658-.00763,0.52522,8.18777-0.13207.0112L35.2904,66.25732a0.72058,0.72058,0,0,0-.22536.12561c0.05386,2.51034.50732,4.98747,0.64454,7.49174-0.34855-1.09149-.287-2.248-0.53-3.33786-0.8698.16185-.82972,0.70072-0.60794,1.32828a2.10868,2.10868,0,0,1,.20886.78943,6.19126,6.19126,0,0,0,.3016,1.94808,1.61159,1.61159,0,0,1,.85961-0.36655L34.2898,75.80816c-0.174-.60992.59307-0.82825,0.48441-1.3912a9.09272,9.09272,0,0,0-.3815-1.4545c-0.23119.06544-.05142,0.39161-0.27373,0.44934a1.19247,1.19247,0,0,0-1.06239,1.65714,1.366,1.366,0,0,1,.03568.61729c-0.32476,1.07869.08967,2.12812,0.18388,3.19565V77.004c0.59953,0.51274.23146,1.02421,0.24117,1.49712,0.0391,1.90642.245,3.80057,0.4209,5.69706a1.0212,1.0212,0,0,1,.10817.72795c-0.5556.87376-.00473,1.73685,0.02079,2.60284A0.39721,0.39721,0,0,0,34.528,87.86a31.29012,31.29012,0,0,1,3.74652.06683c0.49038,0.02765.5522-.22248,0.53871-0.638-0.04225-1.30107-.107-2.60556-0.057-3.90465,0.118-3.0663.2806-6.13119,0.45765-9.19479,0.11163-1.93158.27761-3.86013,0.42706-5.78943C39.77872,66.62131,39.927,64.84346,40.07062,63.06527Zm6.33821,20.82342a6.36954,6.36954,0,0,0-.51809.37768,2.18089,2.18089,0,0,0-1.03231,1.04389,10.22923,10.22923,0,0,0-.26167,2.23579,5.69347,5.69347,0,0,1-.02144,1.51056c-0.08135.57931,0.2038,0.65836,0.63693,0.55686,0.42254-.099.83266-0.25178,1.2471-0.38447,1.08325-.34685,2.27727-0.25528,3.29258-0.9139a2.20413,2.20413,0,0,1,1.41712-.42617c1.74947,0.34213,3.55176.05346,5.28278,0.5099,0.26723,0.07045.36847-.027,0.509-0.32476,0.26063-.55245-0.16724-0.91619-0.19237-1.37151a51.78983,51.78983,0,0,1,.30927-5.17858c0.09341-2.09244.98853-4.09444,0.751-6.2324a0.12167,0.12167,0,0,1,.07256-0.08933,0.70337,0.70337,0,0,0,.37355-0.79634c0.38815-3.05967,1.27917-6.01911,1.77634-9.05565,0.24741-1.511.50827-3.02018,0.72693-4.5354a1.51832,1.51832,0,0,0-.08525-1.09947c-0.24648.14347-.04591,0.25657-0.04984,0.36726-0.009.25234-.19615,0.29866-0.40018,0.04834-0.68642-.84215-1.65515-1.3536-2.4049-2.13618a3.92083,3.92083,0,0,0-4.17563-1.355c-0.974.2883-1.108,0.33968-1.35134,1.34485-0.34393,1.421-.39464,2.8901-0.78423,4.30812a2.49755,2.49755,0,0,0-.10063,1.63314L52.382,63.518a0.40213,0.40213,0,0,1-.32726.37319,1.06207,1.06207,0,0,0-.89223,1.09618c-0.04549.67935-.22383,1.35577-0.255,2.044-0.01251.27564-.03633,0.63642-0.29932,0.658-0.47171.03873-.3353,0.33861-0.3726,0.58453-0.16938,1.11686-.09572,2.25093-0.237,3.3739-0.0377.29968-.47377,0.8959,0.2871,1.06557,0.10482,0.02338.0575,0.15168-.02585,0.21288-0.60013.44081-.20089,1.00578-0.34,1.64319a3.35689,3.35689,0,0,1,1.65475-.98326,13.53,13.53,0,0,1-1.4484,1.11832,0.82051,0.82051,0,0,0-.32486.63223c-0.22831,1.13613.17755,2.31676-.25791,3.43536a1.10621,1.10621,0,0,0-.003.34571c-0.01472.569-.00872,1.13968-0.05162,1.70662a41.18344,41.18344,0,0,0-.02675,5.33541,2.16268,2.16268,0,0,1-.07054,1.333,46.2636,46.2636,0,0,1-.12433-8.74338c-0.80715.51236-1.2741,1.18935-1.931,1.59273a1.52677,1.52677,0,0,0-.71807,1.707c0.04487,0.35708.11722,0.71072,0.1871,1.125a8.3563,8.3563,0,0,1,2.05261-1.35236,1.204,1.204,0,0,1-.69114.65829,2.03761,2.03761,0,0,0-1.25491,2.76672,0.55856,0.55856,0,0,0,.1071.123l1.3936-.97317a3.91777,3.91777,0,0,1-1.20188,1.24063,1.43917,1.43917,0,0,0-.14745,1.25434c0.01933,0.41234.42551,0.03844,0.64185,0.23168-0.78609.68518-1.56188,1.36167-2.33823,2.03752-0.07334.06384-.17016,0.11237-0.23947,0.02506a0.2558,0.2558,0,0,1,.05053-0.36991,7.60393,7.60393,0,0,1,.94467-0.69513,1.23638,1.23638,0,0,0,.6353-1.59722c-0.11027-.38566-0.20966-0.32585-0.44506-0.13a2.24275,2.24275,0,0,1-1.09865.8247,3.5001,3.5001,0,0,1,.92643-1.08658,0.746,0.746,0,0,0,.46734-0.6361A4.58525,4.58525,0,0,0,46.40883,83.88869ZM70.45221,75.163c-0.15985-.92525.31795-1.69489,0.18649-2.5213-0.24123.71119-.4442,1.4302-0.63116,2.15334a0.39247,0.39247,0,0,0,.04948.3197c0.447,0.19285.1623,0.41617,0.05631,0.64937a10.20883,10.20883,0,0,0-.88686,3.18744l0.96428-2.19816a0.6236,0.6236,0,0,1,.02156.58251c-0.30933.80465-.58636,1.6232-0.92967,2.413a20.84819,20.84819,0,0,0-1.08355,5.11486c-0.05179.318,0.02841,0.53048,0.4373,0.47314,0.493-.06911.95208-0.11628,0.98377-0.78271a7.73542,7.73542,0,0,1,.21564-0.86212c0.29893-1.76781,1.313-3.35492,1.32094-5.19931a4.40691,4.40691,0,0,0-.57235.76067,1.60834,1.60834,0,0,1,.05366-0.75955c0.35183-1.4188.75265-2.82867,1.0268-4.26263,0.25314-1.324,1.21314-2.5077.74835-3.99372a1.66043,1.66043,0,0,1,.44952-1.042,8.60418,8.60418,0,0,0,.86125-2.17538c-1.18863.61068-1.15762,1.80728-1.44643,3.03972l-0.10473-.94848A47.88955,47.88955,0,0,1,70.45221,75.163Zm5.96641-11.725a62.13461,62.13461,0,0,1,3.19656-6.55843,0.68859,0.68859,0,0,0-.99911.57c-0.46657,1.481-1.24763,2.82857-1.86888,4.36035-0.14552-.40257.21613-0.62516,0.002-0.94758a25.00484,25.00484,0,0,0-1.33436,2.69251,0.19469,0.19469,0,0,0,.02489.17426,0.42229,0.42229,0,0,1-.04789.57481,7.35036,7.35036,0,0,0-.66806.87869,4.16,4.16,0,0,0-.53415,2.05549,1.59969,1.59969,0,0,1,.85684-0.305,6.168,6.168,0,0,0-1.91389,3.982c0.17,0.023.28009-.28881,0.45275-0.11076a0.387,0.387,0,0,1-.05275.38566c-0.15372.38539-.60684,0.73-0.19779,1.21514a0.47094,0.47094,0,0,1-.14923.20743c-0.94185.74414-.4953,1.88132-0.8196,2.80206,1.74222-4.49183,3.165-9.10141,5.29355-13.43842A7.12356,7.12356,0,0,0,76.41862,63.438ZM61.12379,81.61615c-1.8905,2.13728-3.89333,4.00939-3.686,7.07248A9.30067,9.30067,0,0,1,59.448,87.6937c0.6115-.222,1.25062-0.42835.94792-1.31774a0.61,0.61,0,0,1,.05049-0.26607c0.15735-.752.31469-1.50407,0.51618-2.46719a33.06792,33.06792,0,0,0-2.49955,3.48965c-0.10236.15888-.07361,0.51432-0.33681,0.39664-0.26471-.11837-0.0641-0.38352.02646-0.5944,0.567-1.32027,1.80076-2.18669,2.37281-3.5015C61.47734,83.13854,61.08335,82.403,61.12379,81.61615ZM63.12224,60.674c-1.63214,1.31224-1.82535,2.00134-1.65,3.59333a6.03492,6.03492,0,0,0,.433-0.56133,12.55077,12.55077,0,0,1,2.23261-2.79924,18.83369,18.83369,0,0,1,1.49516-1.2332c0.07888-.05927-0.01137-0.266.15086-0.21621a0.32407,0.32407,0,0,1,.15319.27934,13.8893,13.8893,0,0,0-.44864,2.77365c-0.18221,1.1425-.3074,2.2941-0.45722,3.44177l0.2416,0.0504c0.6423-2.78356,1.1584-5.59621,1.77131-8.36461-1.01225-.01514-1.05157.80015-1.25011,1.47526-0.27429-.23062.12024-0.411-0.08253-0.64591-1.43044,1.12659-2.27084,2.79326-3.63645,3.97005A10.53042,10.53042,0,0,1,63.12224,60.674Zm-5.07039-33.1987a3.70945,3.70945,0,0,0-1.51345-.61111,4.63313,4.63313,0,0,1,2.18477.1904,2.8825,2.8825,0,0,0,1.83877-.151,2.97837,2.97837,0,0,1-.67835-0.10185l0.54737-.25955c-0.40692-.65542-1.20909-0.52252-1.76227-0.80307a2.24048,2.24048,0,0,1,2.75.01758,0.85912,0.85912,0,0,0,1.25842-.18187c-1.45282-1.25391-2.98482-.53648-4.49208-0.12377a5.26735,5.26735,0,0,0-1.07448.60789c-1.05274.59224-2.08805,1.242-3.39407,0.84849a0.77625,0.77625,0,0,0-.799.17544A14.56127,14.56127,0,0,0,58.05185,27.47534ZM70.44507,45.5298a37.14946,37.14946,0,0,0,4.04115-1.5442,0.72273,0.72273,0,0,0,.4668-0.92068,0.8748,0.8748,0,0,1-.912.03538c0.68195-.41493.71746-1.05725,0.18155-1.92593-0.54684-.88635-0.84586.1459-1.28092,0.12017a1.86508,1.86508,0,0,0,.55749.05788,0.48439,0.48439,0,0,1,.50147.29723,0.58465,0.58465,0,0,1-.11084.70944,1.95429,1.95429,0,0,0-1.04024,1.824,2.14341,2.14341,0,0,1-.07125-0.68978c0.00777-.28842-0.11917-0.37681-0.38672-0.27829-0.579.21321-1.15487,0.43562-1.7393,0.63267a0.31024,0.31024,0,0,0-.27475.385C70.42441,44.64341,70.42335,45.05963,70.44507,45.5298Zm-8.17831-5.19658a0.81344,0.81344,0,0,0,.66467-0.11456,31.23072,31.23072,0,0,0,3.55018-.78054,20.34871,20.34871,0,0,0,2.713-1.20721,3.49673,3.49673,0,0,0,1.66082-2.28285,11.211,11.211,0,0,1-2.53254,1.10665,1.08924,1.08924,0,0,0-1.05663.86868,4.19574,4.19574,0,0,0,2.51287-1.18153,0.71649,0.71649,0,0,1-.45268.77817,15.65642,15.65642,0,0,1-2.97194,1.0015,28.42287,28.42287,0,0,0-2.86645.92961A1.8652,1.8652,0,0,0,62.26676,40.33322ZM49.24618,63.95006a2.6696,2.6696,0,0,0,.50581-0.30573c0.23169-.24126.7657-0.12425,0.75254-0.658a1.80524,1.80524,0,0,1,.11492-0.9525,0.29534,0.29534,0,0,0-.037-0.26289c-0.09942-.12289-0.19239-0.00608-0.28989.04654a22.64087,22.64087,0,0,0-4.31258,3.05284,0.92159,0.92159,0,0,0-.11791,1.18659c0.2421,0.35571.62127-.00782,0.84043-0.24916a4.72152,4.72152,0,0,1,1.1685-.88963,2.04371,2.04371,0,0,0,1.25761-2.054,0.454,0.454,0,0,1,.1176-0.136v1.22189Zm9.26651,17.85765c0.102-.14388.15968-0.21088,0.20157-0.28665a15.29021,15.29021,0,0,1,1.60361-2.1131,5.39045,5.39045,0,0,0,1.199-1.51307c0.01963-.05609.02233-0.13616,0.10481-0.05116,0.37253,0.38383.38828-.01572,0.43039-0.21808,0.154-.74028.28138-1.48612,0.43071-2.29446C60.89728,76.55813,58.00643,80.22548,58.51269,81.80771Zm7.93939-39.78837c0.32451,0.29219.41431,0.80107,0.9348,0.5675a8.04572,8.04572,0,0,1,1.36711-.41776c0.41613-.10433.85362-0.21569,0.74591-0.88234a0.63668,0.63668,0,0,0,.95142.38,8.23455,8.23455,0,0,0,2.47035-1.02885H70.843a3.73841,3.73841,0,0,1,1.58628-.26235,0.36584,0.36584,0,0,0,.4518-0.30536c0.08721-.26457-0.13761-0.28825-0.28971-0.37939a1.096,1.096,0,0,0-1.09995.01854A18.40312,18.40312,0,0,1,66.45208,42.01934ZM61.92562,78.4852c-0.70332.64106-1.55533,1.11234-1.75158,2.095-1.11835.397-1.04685,1.73466-1.87264,2.377a3.05957,3.05957,0,0,0-.14724,1.73107c0.39729-1.12466,1.75037-1.56393,1.738-2.87637,0.20547,0.07643.0172,0.49262,0.22478,0.32165a3.61845,3.61845,0,0,0,1.4039-1.39394A14.98976,14.98976,0,0,0,61.92562,78.4852ZM44.89648,84.64427c1.71135-1.03932,1.84984-1.39554,1.30928-3.17089a6.41847,6.41847,0,0,1-1.08324.7777c0.39765-.91521,1.72457-1.359.9437-2.57277-0.26356.40029-.858,0.51435-0.96234,1.01138A27.83478,27.83478,0,0,0,44.89648,84.64427ZM58.93924,78.853A0.66458,0.66458,0,0,0,59.2614,78.523c0.349-.50679.67292-1.03449,1.06112-1.5095a4.61749,4.61749,0,0,1,1.0017-1.2529c0.65885-.434.44988-1.29735,0.4362-2.07021a1.67463,1.67463,0,0,0-.79481,1.83821,1.74688,1.74688,0,0,1-.23234-0.636A4.79547,4.79547,0,0,0,58.93924,78.853Zm4.23262-65.57308c0.97775-.66657,1.82745-1.28338,2.71479-1.84027a13.018,13.018,0,0,1,2.87265-1.27489c0.56314-.18586.07687-0.648,0.24322-0.93918a0.9155,0.9155,0,0,0-.63941-0.01367c-0.92764.58851-1.92052,1.08674-2.7907,1.74807a9.04524,9.04524,0,0,1-1.35847.98951A1.9022,1.9022,0,0,0,63.17186,13.27989Zm4.45448,23.16392c-0.0321.26014-.02989,0.5881,0.4439,0.42075a14.01986,14.01986,0,0,0,2.32192-1.00878,0.327,0.327,0,0,0,.21936-0.374c-0.20884-.99684-0.26685-1.031-1.2938-0.63847a6.10053,6.10053,0,0,1-.64139.24273C67.66108,35.3472,67.65986,35.34246,67.62633,36.44381ZM60.42859,69.1306c0.63272-1.07713,1.74917-1.86878,1.76033-3.27269a3.34529,3.34529,0,0,0,.1062.754c0.75078-.80542,1.5033-1.59214,1.29954-2.93976C62.25288,65.39513,60.594,66.828,60.42859,69.1306ZM46.72032,80.539a17.966,17.966,0,0,1,2.25534-1.97136c0.54725-.38286.4252-0.99561,0.57519-1.68375A11.15673,11.15673,0,0,0,48.0119,77.953C47.31516,78.64719,46.02177,79.06862,46.72032,80.539ZM32.77341,67.9449a0.962,0.962,0,0,0-.50009,1.05109c0.09442,0.69889.20493,1.396,0.27959,2.09694,0.02888,0.27125-.0493.69417,0.1875,0.73471a1.41575,1.41575,0,0,0,.68723-0.50915,0.48,0.48,0,0,0,.05934-0.52116c-0.09016-.3432-0.17512-0.68781-0.26224-1.03183a2.75209,2.75209,0,0,1,.42378.7101c0.09093,0.17783-.14049.57975,0.22794,0.52,0.27594-.04471.21024-0.42269,0.19125-0.67043-0.01194-.15574-0.1006-0.30444-0.12184-0.46079-0.12162-.89549-0.11769-0.89515-0.81111-0.39521a0.46573,0.46573,0,0,1-.18711-0.0296C33.19021,68.92731,32.66369,68.53016,32.77341,67.9449Zm29.11506,0.66067c-0.18631-.43933-0.33441-0.40736-0.5893-0.04826a15.97985,15.97985,0,0,0-.95437,1.80783,1.36248,1.36248,0,0,0-.26118,1.42432c0.39854-1.06639,1.465-1.72908,1.62669-2.89758,0.09662,0.0755.14549,0.3112,0.39892,0.05745,0.51433-.515.30745-1.23375,0.60538-1.85318a2.22853,2.22853,0,0,1-.10478,1.17417,3.08825,3.08825,0,0,0,.62108-2.08768C62.66356,66.89517,61.72142,67.386,61.88847,68.60557Zm4.08407-10.73885c0.45663-.30753.79712-0.60115,1.14687-0.831a3.06846,3.06846,0,0,0,.27467-1.14415c0.16563-.45872-0.11438-0.3693-0.31156-0.27251a3.75774,3.75774,0,0,0-1.41866,1.12816,3.118,3.118,0,0,1-.774.95079,8.50233,8.50233,0,0,0-1.87413,1.99041,0.64406,0.64406,0,0,0-.193.73461,37.14535,37.14535,0,0,1,3.89053-3.85931A2.9526,2.9526,0,0,0,65.97255,57.86672Zm4.00888-14.39813c-0.06542-.2642-0.1416-0.52633-0.19346-0.79316a0.37144,0.37144,0,0,0-.53343-0.333c-0.58314.17271-1.16287,0.357-1.74609,0.52937-0.128.03783-.28226,0.0201-0.17465,0.23632a2.661,2.661,0,0,0,.57534,1.12875c0.59862,0.3173,1.14634-.30317,1.75009-0.40108A0.31715,0.31715,0,0,0,69.98143,43.46859ZM48.75467,70.54421a0.82637,0.82637,0,0,0-.238.07987c-0.39169.27939-.77241,0.5742-1.1644,0.85315-0.98174.69865-1.06877,0.93206-.77338,2.1618,0.50958-.21494.79729-0.724,1.26738-0.96708A1.61452,1.61452,0,0,0,48.75467,70.54421Zm0.13113,6.18507c0.00958-1.02919-.36532-0.72066-0.78067-0.36131a9.04559,9.04559,0,0,1-.97336.759,1.29377,1.29377,0,0,0-.58184,1.6603c0.77369-.58747,1.51877-1.18133,2.29363-1.7334a1.278,1.278,0,0,0,.59185-1.76188C48.73611,75.52262,49.05172,76.15972,48.88581,76.72928Zm-15.062-8.995a11.68239,11.68239,0,0,1,.40442,2.26613c0.0268,0.23652.024,0.59148,0.34,0.53962a0.588,0.588,0,0,0,.61372-0.65936q-0.21068-1.49972-.40462-3.00176c-0.02636-.20454-0.09094-0.316-0.30548-0.20537A0.88987,0.88987,0,0,0,33.82382,67.73428ZM48.6763,74.084c-0.54835.43413-1.04621,0.88256-1.59815,1.24974a1.33522,1.33522,0,0,0-.60416,1.42043c0.016,0.12559-.06772.29428,0.09978,0.36357a0.39422,0.39422,0,0,0,.42333-0.15722c0.39583-.35178.78-0.71993,1.20058-1.03986A1.40437,1.40437,0,0,0,48.6763,74.084Zm-14.769-9.67884a0.49313,0.49313,0,0,1-.0673.17579,1.79949,1.79949,0,0,0-.1913,1.9522c0.07658,0.1088.13877,0.18748,0.267,0.11575,0.36363-.2034.8261-0.29742,0.72707-0.91208-0.131-.81306-0.19478-1.63695-0.29059-2.48393-1.20653.5658-1.20653,0.5658-1.001,1.31679A1.17159,1.17159,0,0,1,33.90729,64.40512ZM62.118,80.61138a0.57335,0.57335,0,0,0,.48094-0.50813c0.21316-1.5848.3988-3.17325,0.6968-4.74619,0.02685-.1417.18651-0.471-0.15927-0.48234a0.41117,0.41117,0,0,0-.50531.42245,10.774,10.774,0,0,1-.161,1.36463,0.8728,0.8728,0,0,0,.08517,1.01883c-0.60156.41926-.39052,1.13726-0.6075,1.69887-0.06119.15839-.22887,0.60653,0.3397,0.41555,0.17579-.059.24369,0.18886,0.09812,0.33863A0.56877,0.56877,0,0,0,62.118,80.61138Zm7.884-38.14046c0.01054,1.07261.17807,1.1947,1.18012,0.86338,0.25754-.08513.5237-0.14831,0.77381-0.251,0.72049-.29577.73211-0.39479,0.28913-1.02037a0.548,0.548,0,0,0-.82548-0.168c-0.15786.08255-.2623,0.30913-0.56783,0.06746A0.6049,0.6049,0,0,0,70.002,42.47092ZM64.39876,26.385c-1.61139.71516-3.40185,0.58467-5.03491,1.12331,0.00027,0.329.47092,0.06314,0.46614,0.457a3.23374,3.23374,0,0,0-.92411-0.06941c0.09885,0.16892.09456,0.50056,0.25722,0.43234,0.725-.304,1.67365.00351,2.21161-0.79534,0.14887-.22108.35555-0.35792,0.568-0.15674a0.88165,0.88165,0,0,0,.96063.04956A4.20264,4.20264,0,0,0,64.39876,26.385ZM47.16016,67.378c0.20708-.02083.09237,0.3988,0.45126,0.21936,0.96909-.48453,1.30357-0.88229,1.24118-1.8063-0.89308.52954-1.66586,1.16065-2.47723,1.73863a1.16051,1.16051,0,0,0-.57384,1.65413C46.12747,68.38482,47.25093,68.41716,47.16016,67.378ZM63.431,70.29879a4.42,4.42,0,0,1-.008.67422c-0.02962.18976-.23968,0.45263-0.00246,0.53581a0.49365,0.49365,0,0,0,.5353-0.4301,8.69355,8.69355,0,0,0,.26716-2.31557c-0.54638.64038-1.3824,1.01533-1.49656,2.02222a1.14226,1.14226,0,0,1-.47688,1.22019,0.442,0.442,0,0,0,.01827.49658c0.20986-.392.83391-0.30378,0.85573-0.7517A12.30393,12.30393,0,0,1,63.431,70.29879ZM46.556,75.37514c0.59746-.4918,1.14465-1.00926,1.75868-1.42894a1.15192,1.15192,0,0,0,.38187-1.52483,3.19977,3.19977,0,0,0-.603.41018C47.43,73.56815,46.0185,73.832,46.556,75.37514ZM68.62173,32.759a1.2412,1.2412,0,0,1-.91706,1.29148c-0.11829.05793-.45161,0.02853-0.27062,0.33892,0.11674,0.20021.07586,0.58223,0.41583,0.54716a6.5713,6.5713,0,0,0,2.41754-.87678c-0.54687.25168-.7092-0.06128-0.87543-0.45223A1.78852,1.78852,0,0,0,68.62173,32.759ZM73.85839,64.3068a16.91742,16.91742,0,0,0,1.07069-2.05269,2.3219,2.3219,0,0,1,.21819-1.14209,5.08649,5.08649,0,0,0,.631-1.49c0.10435-.28233.10284-0.445-0.14535-0.55442a0.30417,0.30417,0,0,0-.41807.36119c0.06992,0.43278-.70351.75785-0.14087,1.22352a2.55376,2.55376,0,0,0-.63245,1.26287A7.63316,7.63316,0,0,0,73.85839,64.3068ZM46.504,71.72962a7.713,7.713,0,0,1,1.64913-1.22447,1.2739,1.2739,0,0,0,.573-1.74745c-0.36866.66616-1.32705,0.56091-1.33048,1.45317a0.075,0.075,0,0,1-.13616.04483c-0.19191-.42062-0.29453-0.01613-0.42263.04595C46.21364,70.60362,46.49472,71.14038,46.504,71.72962ZM60.45323,32.09553c1.25168,0.93748,2.44507.17221,3.78967-.009-0.38249-.292-0.40046-0.9183-0.90924-0.72419C62.41033,31.71463,61.39708,31.66124,60.45323,32.09553Zm3.4997-.84074a1.4005,1.4005,0,0,0,.66779.737,9.553,9.553,0,0,0,1.8004-.372c0.39729-.09846.08918-0.61146,0.41744-0.76535a0.48222,0.48222,0,0,0-.47488-0.18333A7.96222,7.96222,0,0,0,63.95292,31.25479ZM31.4558,63.12094a5.17454,5.17454,0,0,0,.01021.72582c0.01549,0.1043.10261,0.34575,0.23357,0.248,0.36588-.27312,1.03187-0.24393,1.12911-0.67894a4.0363,4.0363,0,0,0-.193-1.53022c-0.02521-.1305-0.1979-0.09721-0.28889-0.02938C31.90034,62.18906,31.18284,62.33877,31.4558,63.12094Zm0.71543-3.91508a1.87128,1.87128,0,0,0-.83867,2.5538,0.25245,0.25245,0,0,0,.15241.12457,1.81788,1.81788,0,0,0,.99844-0.53641,0.60712,0.60712,0,0,0-.05207-0.71987c-0.2678-.33358-0.46082.17356-0.76692,0.17084C31.72956,60.18,32.6608,59.94295,32.17124,59.20586ZM61.32313,16.75407a1.77113,1.77113,0,0,0,.17174-0.0809c0.432-.34663.65272-1.16807,1.4848-0.62032,0.12741,0.08388.2779-.13613,0.19419-0.32207a3.22226,3.22226,0,0,0-1.02554-1.35327c-0.2259-.16072-0.46553-0.09932-0.51285.26347C61.54709,15.31846,61.43695,15.9931,61.32313,16.75407Zm2.61413,12.24388a3.11228,3.11228,0,0,0,.90724-1.21277c0.29683-.33468-0.00124-0.57192-0.16386-0.77837-0.27122-.34435-0.24184.16315-0.41958,0.19486a5.96047,5.96047,0,0,0-.93731.34914c-0.52655.19045-1.2598,0.05489-1.54425,0.78648a2.58278,2.58278,0,0,0,1.34457-.20047,0.65646,0.65646,0,0,1,.85622-0.00974C64.2908,28.43289,63.912,28.64405,63.93726,28.99795ZM49.91691,66.36721c-0.87142.89648-.87142,0.89648-0.70357,1.74195a2.7621,2.7621,0,0,0,.90478-3.088c-0.14683.068-.28558,0.14362-0.4322,0.198a0.90246,0.90246,0,0,0-.52113,1.12109C49.2705,66.81207,49.65967,66.1549,49.91691,66.36721Zm9.43618,9.5674c0.695-1.08914,2.05019-1.83763,1.70252-3.47439A6.16965,6.16965,0,0,0,59.35309,75.93461ZM63.36945,67.448c0.7418-.41013.46947-1.207,0.80576-1.96552v1.23507c0.88693-.65146.56927-1.56092,0.834-2.37208A3.027,3.027,0,0,0,63.36945,67.448ZM60.59782,21.69832a24.01722,24.01722,0,0,1-3.37244,1.822c-0.2266.0849-.38514,0.24267-0.27513,0.4637,0.1128,0.22658.29944,0.06093,0.46652-.0089,1.01317-.42342,1.95539-0.982,2.92344-1.49258A0.54878,0.54878,0,0,0,60.59782,21.69832ZM50.01708,32.55672c-1.80852-.59816-3.67671-0.35277-5.66066-0.72181C46.26432,33.07359,48.18755,32.39075,50.01708,32.55672ZM47.08364,68.41147c-0.43077.352-.87493,0.66786-1.26,1.04418a1.65748,1.65748,0,0,0-.29678,1.18975c-0.00825.15083,0.163,0.10457,0.27127,0.06755A1.94261,1.94261,0,0,0,47.08364,68.41147ZM65.96927,32.89831c0.45861-.17938.94656-0.3578,1.42286-0.56328,0.16736-.07221.49076-0.04986,0.40018-0.3704-0.08819-.31209-0.36026-0.215-0.58149-0.17634-0.71855.12572-1.43559,0.26-2.15429,0.38493-0.15253.02651-.34271-0.02305-0.33,0.23292a0.32771,0.32771,0,0,0,.32544.29955A1.75453,1.75453,0,0,1,65.96927,32.89831Zm-3.74942.00053c0.456,0.9667,1.20014.7551,1.98214,0.527,0.52745-.15385.22806-0.49742,0.22777-0.75961-0.00037-.35719-0.2329-0.298-0.475-0.21927A7.75764,7.75764,0,0,0,62.21985,32.89883ZM47.49764,69.30844c0.885-.4395,1.5853-0.98552,1.36583-2.113C47.63759,67.58094,47.27186,68.13012,47.49764,69.30844ZM45.19312,80.00566c0.37933-.3144.61686-0.48923,0.82768-0.69189a1.06606,1.06606,0,0,0,.03134-1.143c-0.3187-.14547-0.3523-0.18474-0.179-0.333a1.243,1.243,0,0,0,.20446-1.408A9.665,9.665,0,0,0,45.19312,80.00566ZM27.58253,48.39842a2.85186,2.85186,0,0,0,2.36,1.43611c0.15982,0.00153.41444,0.2865,0.50262-.05a0.49753,0.49753,0,0,0-.39606-0.6222C29.29425,48.92693,28.53851,48.69428,27.58253,48.39842Zm17.398-4.3471c1.75078,0.19487,6.11792-.06323,6.87737-0.48862C49.45512,43.80014,47.20706,43.72336,44.9805,44.05132ZM43.2934,24.29865a8.38788,8.38788,0,0,1-1.11266.93591,4.85147,4.85147,0,0,0-1.219.768c-0.25736.15373-.17779,0.36735,0.07484,0.52963a0.91572,0.91572,0,0,1,.49162.19439c0.10277,0.16609.23958,0.10054,0.30466-.04545,0.08945-.20061-0.05258-0.21347-0.20612-0.23172-0.10665-.01268-0.28685.13755-0.32431-0.1845,0.52064,0.21485.74624-.47395,1.26315-0.35356,0.1043,0.02428.15791-.15007,0.15453-0.27025A2.11937,2.11937,0,0,1,43.2934,24.29865Zm13.66135,6.34371,0.07312,0.23118c1.795-.504,3.73718-0.34653,5.41553-1.3776ZM46.88306,58.11023a16.443,16.443,0,0,0-2.7434-1.62222,1.94239,1.94239,0,0,1,.35619.80258,1.0818,1.0818,0,0,0,.65066.77252C45.76566,57.70876,46.2926,58.1895,46.88306,58.11023ZM32.59324,66.83839c0.20465,0.0458-.02078.49858,0.33481,0.369a0.49571,0.49571,0,0,0,.4458-0.45618,7.36766,7.36766,0,0,0-.17545-1.27132c-0.0682-.2651-0.23939-0.077-0.3595.01726a1.73585,1.73585,0,0,0-.49771,2.07028C32.71712,67.4037,32.43684,67.04555,32.59324,66.83839ZM63.815,38.962c2.83771-.65721,3.1462-0.79814,3.27132-1.52667C66.07217,38.067,64.65859,37.73247,63.815,38.962Zm0.90263-4.62612c0.00367-.66168-0.03618-0.77147-0.24048-0.7025-0.42493.14347-1.04443,0.027-1.19212,0.53295a0.82524,0.82524,0,0,0,.65022.88377C64.3168,35.0342,64.86191,34.91415,64.71762,34.33585ZM30.13708,40.31652a5.12784,5.12784,0,0,1-.39477-2.20178c0.0035-.479-0.3135-0.54216-0.699-0.25262-0.47576.35731-.48486,0.45845-0.011,0.71237a0.33662,0.33662,0,0,1,.13924.10291C28.94363,39.54643,29.87787,39.723,30.13708,40.31652Zm43.01654,26.7392c0.43316-.92317,1.1-1.70866,1.6589-2.76262-0.55921.20663-.37652,0.69216-0.70917,0.8169-0.21859-.19674.30825-0.498-0.06454-0.63435a0.40442,0.40442,0,0,0-.47185.32087A5.56165,5.56165,0,0,0,73.15362,67.05571Zm-27.98822,7.548c1.03008-.42021,1.23422-0.91449.914-2.10793C45.28853,73.10457,45.28853,73.10457,45.1654,74.60375ZM59.657,42.3865c-2.01408.30894-4.03444,0.62057-6.06266,0.881A20.67306,20.67306,0,0,0,59.657,42.3865Zm3.23675,30.12263c-0.85277.3874-.78841,1.13922-0.95046,1.758-0.04952.189-.13156,0.52942,0.16267,0.58706a0.49385,0.49385,0,0,0,.50883-0.3805A7.4801,7.4801,0,0,0,62.89377,72.50913Zm-3.18239,1.07081c0.45115-1.02945,1.85631-1.55914,1.609-3.09546A10.76084,10.76084,0,0,0,59.71138,73.57994ZM77.66118,55.815c0.20427-.66315.969-0.95555,0.98831-1.76161a1.35706,1.35706,0,0,1,.65605-0.7583c0.13526-.12214.16364,0.173,0.25232,0.113,0.116-.07854.30543-0.18913,0.069-0.365-0.244-.18155-0.361.05815-0.53187,0.13808-0.74766.34959-.87879,1.1607-1.30935,1.74643C77.61124,55.16478,77.2041,55.38638,77.66118,55.815ZM62.84864,74.1859c0.749-.21645.92091-0.71218,0.94389-2.53616C62.83036,72.30113,63.22634,73.34587,62.84864,74.1859Zm-4.2394-53.01925a2.22852,2.22852,0,0,0,1.09687-.79265c-0.096-.21149-0.06688-0.53646-0.407-0.57309a3.31976,3.31976,0,0,0-1.11135.83842A0.774,0.774,0,0,0,58.60924,21.16665Zm-9.641,43.27647c-0.56924.44558-1.033,0.81845-1.50849,1.17574a0.42949,0.42949,0,0,0-.151.49064c0.0202,0.10165.07161,0.20133,0.16957,0.14117,0.44889-.27571.89973-0.55185,1.32336-0.86385A1.08679,1.08679,0,0,0,48.96823,64.44312Zm26.40432-2.53594a6.23435,6.23435,0,0,0,1.72995-2.81381A5.30224,5.30224,0,0,0,75.37255,61.90717ZM38.86077,51.40791a11.43015,11.43015,0,0,0,4.68553,0H38.86077ZM32.66015,59.716a5.45651,5.45651,0,0,0,.825-0.44074,0.60832,0.60832,0,0,0,.06033-0.86346c-0.18247-.294-0.339.00839-0.517,0.079A0.72332,0.72332,0,0,0,32.66015,59.716Zm34.92-26.852a0.85724,0.85724,0,0,0-.99748.33661,0.76034,0.76034,0,0,0,.71411.60974,0.87566,0.87566,0,0,0,.85541-0.74717C68.17321,32.68947,67.75682,32.94473,67.58018,32.864ZM66.64584,49.09942l-0.0206-.17618q-2.752.42057-5.504,0.84117A37.50737,37.50737,0,0,0,66.64584,49.09942ZM35.58651,42.63a11.31112,11.31112,0,0,0,3.98106.922C38.34034,42.88826,36.865,43.19423,35.58651,42.63Zm16.28212,8.85286-0.01883-.25232-3.83777.3104,0.0079,0.18177A27.90926,27.90926,0,0,0,51.86863,51.48282Zm9.30451,22.21682a2.10446,2.10446,0,0,0,.74414-2.36343C61.24653,71.943,61.38478,72.7863,61.17314,73.69964ZM50.913,65.1272c-0.03857-.13993.12967-0.44886-0.15139-0.47061-0.25186-.01946-0.20621.27791-0.25645,0.47652a17.16512,17.16512,0,0,0-.17612,1.92013c-0.01981.143-.08653,0.28152,0.12212,0.30881,0.16048,0.021.1719-.11154,0.1877-0.22768C50.72815,66.47795,50.81811,65.82161,50.913,65.1272Zm14.225-29.211c0.19633-.33473.8175-0.049,0.93449-0.5453a0.40522,0.40522,0,0,0-.37287-0.54171,0.8199,0.8199,0,0,0-.84258.74538A0.24763,0.24763,0,0,0,65.138,35.91624ZM49.3129,64.98352c1.09394-.37236,1.1563-0.4588.93538-1.36838C49.81963,64.01662,49.02249,64.10692,49.3129,64.98352Zm0.34259,8.44392c-0.84586.16649-.66235,0.8106-0.67415,1.35421a0.23573,0.23573,0,0,0,.116.29076,0.32051,0.32051,0,0,0,.34343-0.16911A2.1436,2.1436,0,0,0,49.65549,73.42743ZM73.77424,41.8909a1.88394,1.88394,0,0,0-1.04017-.38181c-0.1388-.01823-0.39142.03247-0.29992,0.23681,0.13509,0.30157.14948,0.8002,0.55889,0.80538A1.0343,1.0343,0,0,0,73.77424,41.8909Zm-10.26376-15.852A0.59481,0.59481,0,0,1,63.229,26.0075c-0.34133-.38335-0.54407.02291-0.79824,0.12739a0.1974,0.1974,0,0,0-.07.336c0.24471,0.3195.489-.02327,0.73646-0.03192a2.30159,2.30159,0,0,0,.45166-0.137c0.32573-.084.13477-0.39287,0.2389-0.58218,0.06845-.12444-0.156-0.30523-0.33691-0.36733-0.11616-.03986-0.15042.08251-0.19773,0.14908C63.047,25.79171,63.43115,25.82224,63.51049,26.03889ZM47.01081,66.03847c-1.00872.57943-1.24586,0.8604-1.23011,1.527C46.31166,67.1167,47.15336,67.01272,47.01081,66.03847ZM61.682,26.09463a4.10723,4.10723,0,0,0-2.18132-.452C60.212,25.72844,60.66118,26.88462,61.682,26.09463Zm1.98938-1.3444a0.32413,0.32413,0,0,0,.03988-0.1086c-0.27486-.46664-0.94977-0.85256-1.17964-0.61644-0.58992.60591-.93425-0.60429-1.38964-0.05689a1.15142,1.15142,0,0,1-.17669.1589C61.80671,24.59733,62.84127,24.13193,63.67141,24.75023Zm3.07723,9.29011a1.39854,1.39854,0,0,0-.66618-0.66213,0.57991,0.57991,0,0,0-.64686-0.03212c-0.07744.0332-.16316,0.13094-0.07518,0.21315a2.08158,2.08158,0,0,0,.73865.68948A0.53805,0.53805,0,0,0,66.74863,34.04035Zm11.4686,22.571a3.32582,3.32582,0,0,0-1.16092,1.85089A1.8411,1.8411,0,0,0,78.21723,56.61137ZM33.65563,68.11965c-0.04015-.2077.04269-0.64317-0.37285-0.69751-0.27191-.03557-0.38148.26638-0.322,0.558,0.06375,0.31229.001,0.751,0.41126,0.80327C33.71377,68.82689,33.6886,68.47825,33.65563,68.11965Zm28.698-4.03269a2.77491,2.77491,0,0,0-1.208,2.02436C61.46585,65.45373,62.30525,65.12987,62.35366,64.087ZM66.916,34.40158c-0.15516.17433-.59889,0.0001-0.60869,0.31008-0.005.15667-.11546,0.63772,0.293,0.63909a0.564,0.564,0,0,0,.71622-0.45538A0.41281,0.41281,0,0,0,66.916,34.40158ZM38.00988,30.86837a1.13,1.13,0,0,0-1.3637.16276c-0.17308.115-.41846,0.17583-0.25647,0.42393a0.38066,0.38066,0,0,0,.64393.04243A2.10967,2.10967,0,0,1,38.00988,30.86837Zm-0.9447,1.47453a1.73448,1.73448,0,0,0-.21234-0.23867c-0.11683-.09388-0.20348-0.01187-0.28478.07862-0.22916.25511-.4617,0.50719-0.69437,0.75911-0.07893.08546-.17678,0.18252-0.07025,0.28838a0.64535,0.64535,0,0,0,.301.14067A4.12113,4.12113,0,0,0,37.06518,32.3429Zm42.70851,23.064c-0.46283.07259-.37525,0.57663-0.54878,0.88435-0.08911.158,0.09258,0.24519,0.2397,0.2179a0.99151,0.99151,0,0,0,.79412-0.77984C80.32748,55.4562,80.04333,55.43443,79.77369,55.40689ZM64.67689,35.01764c-0.21.43264-1.00724-.04793-0.81429,0.76792,0.0523,0.22107-.02316.47393,0.36777,0.39252C64.891,36.04053,64.6902,35.5681,64.67689,35.01764ZM37.80554,42.3734q-1.47392-.53239-2.94784-1.06474l-0.05887.1719A9.77588,9.77588,0,0,0,37.80554,42.3734ZM61.66478,70.99868a2.3154,2.3154,0,0,0,.67031-1.8333A1.776,1.776,0,0,0,61.66478,70.99868Zm8.6046-61.01335a0.50447,0.50447,0,0,0,.49933-0.52418,0.377,0.377,0,0,0-.45153-0.39589,0.41768,0.41768,0,0,0-.46614.464A0.40537,0.40537,0,0,0,70.26938,9.98533ZM45.52973,72.40947c0.75773-.45265.80245-0.57377,0.51824-1.428A1.34656,1.34656,0,0,0,45.52973,72.40947Zm-14.0419-22.0274a6.20892,6.20892,0,0,0,2.61289.47406A17.45408,17.45408,0,0,0,31.48783,50.38207ZM61.76074,39.63786a2.19854,2.19854,0,0,0,1.06447-.29119,0.55722,0.55722,0,0,0,.33085-0.66842c-0.17458-.24437-0.44361.05212-0.60687,0.20136A2.675,2.675,0,0,0,61.76074,39.63786Zm-17.03729,37.418a14.2603,14.2603,0,0,0-.09373,3.51888A16.45528,16.45528,0,0,0,44.72345,77.05588ZM66.35792,49.88025a3.89641,3.89641,0,0,0,2.41465-.53455,6.67192,6.67192,0,0,0-1.19606.185C67.16646,49.63156,66.76381,49.76247,66.35792,49.88025ZM60.5082,21.27385c0.0061-.1349-0.0443-0.24559-0.13905-0.2172a11.24532,11.24532,0,0,0-1.12707.39462c-0.12209.05128,0.007,0.198,0.05234,0.20846,0.183,0.042.31474,0.2848,0.551,0.13073A2.08,2.08,0,0,0,60.5082,21.27385ZM73.01061,64.2883a5.30518,5.30518,0,0,0,.8245-2.14746A5.3751,5.3751,0,0,0,73.01061,64.2883Zm2.8993-8.72467c0.34252-.47151.55233-0.79615,0.79974-1.089,0.18148-.21482.03616-0.33261-0.08046-0.46774a0.15161,0.15161,0,0,0-.274.0303A2.63963,2.63963,0,0,0,75.90991,55.56363Zm-5.66964-7.87876q0.97133-.36467,1.94266-0.72931A2.16478,2.16478,0,0,0,70.24027,47.68487ZM74.8006,64.17154l0.90226-1.965C74.70459,63.2919,74.57638,63.58949,74.8006,64.17154Zm-41.883-.21265c-0.20666.21637-.38,0.42772-0.5842,0.60308a0.3569,0.3569,0,0,0-.01577.49284c0.11646,0.22153.28107-.00413,0.40356-0.05512C33.28567,64.76468,32.98157,64.35171,32.9176,63.95889Zm22.741-40.51543c0.19977-.16929.62708-0.07523,0.66611-0.446,0.01944-.18461-0.14043-0.59264-0.29684-0.50742a2.02377,2.02377,0,0,0-.61464.76455C55.3573,23.347,55.50943,23.43373,55.65861,23.44346ZM22.13945,59.6287c0.22988,1.60667.32839,1.8465,0.84984,2.17854Zm50.3787-12.9109a1.62381,1.62381,0,0,0,1.93636-.65318Zm-28.452,34.98187c-0.04414.837-.174,1.6526-0.18751,2.47727A4.54031,4.54031,0,0,0,44.06612,81.69967ZM80.40651,48.23641A1.56872,1.56872,0,0,0,79.734,47.4216a0.2517,0.2517,0,0,0-.36451-0.00668,0.26017,0.26017,0,0,0,.04921.36109A1.0654,1.0654,0,0,0,80.40651,48.23641ZM44.51331,84.83529l0.10564-.00214V81.21526L44.51331,81.214v3.62131Zm13.7512-62.44384a3.08918,3.08918,0,0,0-1.42006.96651A2.13367,2.13367,0,0,0,58.26451,22.39144Zm-5.63619,9.68837a9.92021,9.92021,0,0,0,2.73776-.39753l-0.0346-.16824Zm5.03454,50.30357a8.17535,8.17535,0,0,0,.27851-2.83882C57.97217,80.50336,57.52375,81.41364,57.66285,82.38339Zm-28.71448-38.954a1.14017,1.14017,0,0,0,.70893.98809c0.10909,0.08083.23252,0.18869,0.34122,0.00647a0.25718,0.25718,0,0,0-.107-0.35836C29.60048,43.85832,29.29965,43.66482,28.94838,43.42936Zm39.8653-11.23818c0.23,0.56691.72219,0.94552,1.00912,1.59742C69.94527,32.86674,69.25321,32.61044,68.81368,32.19118ZM60.95395,40.635a2.711,2.711,0,0,0,1.37028-.77957C61.13025,40.07916,61.13025,40.07916,60.95395,40.635ZM21.8953,58.10239a2.25732,2.25732,0,0,0-.32148-1.2931c-0.04022-.16705-0.16544-0.08778-0.26669-0.03433a0.1693,0.1693,0,0,0-.0784.26954A3.912,3.912,0,0,0,21.8953,58.10239ZM63.7807,15.73765a5.93765,5.93765,0,0,0-.39132-1.04031c-0.07507-.07659-0.01954-0.40874-0.28339-0.19586-0.11582.09345-.27661,0.19423-0.13154,0.39618A2.1567,2.1567,0,0,0,63.7807,15.73765ZM60.67707,42.10281a3.92859,3.92859,0,0,0,1.89-.4013A4.40325,4.40325,0,0,0,60.67707,42.10281Zm4.57745,23.97877a2.11446,2.11446,0,0,0-.4361,1.66619A3.58157,3.58157,0,0,0,65.25452,66.08158Zm-19.68432,8.785c-0.7501.437-.393,1.05008-0.43416,1.57042A4.36294,4.36294,0,0,0,45.5702,74.86659ZM36.82934,30.13486a1.17394,1.17394,0,0,0,1.20772-.37476c0.1252-.0619.07708-0.20343,0.02874-0.30345-0.05337-.11042-0.1467-0.10162-0.19626.00007A3.2001,3.2001,0,0,1,36.82934,30.13486ZM60.317,13.41811a2.08255,2.08255,0,0,0-1.68305.215A3.0354,3.0354,0,0,0,60.317,13.41811ZM38.60347,30.74974a0.55888,0.55888,0,0,1,.00173-0.65338,0.50272,0.50272,0,0,0-.83672.275C37.73843,30.64665,38.26821,30.621,38.60347,30.74974ZM64.50325,59.12436A3.76547,3.76547,0,0,0,65.85207,57.819C65.09612,58.04044,64.96048,58.75392,64.50325,59.12436ZM53.43494,56.27011c-0.25633.28758-1.02829-.503-1.56969,0.27086Zm8.58949,3.78233c-0.39945.566-.06885,1.08139-0.40809,1.52527C62.65717,61.30021,61.94429,60.68393,62.02443,60.05245ZM23.95906,65.84086L24.59115,67.73A2.53952,2.53952,0,0,0,23.95906,65.84086Zm38.46641-7.40339a2.05982,2.05982,0,0,1-.87621.23929,0.23509,0.23509,0,0,0-.05441.44736C61.77919,58.89386,62.39725,59.24285,62.42547,58.43747Zm-7.22861-3.20059a1.21255,1.21255,0,0,0-1.496.04438A12.98484,12.98484,0,0,0,55.19687,55.23688ZM65.019,34.63641c0.236-.00044.48825-0.04232,0.49739-0.26742a1.00786,1.00786,0,0,0-.49739-0.69613v0.96355Zm2.24868,4.96949a1.76952,1.76952,0,0,0,1.20675-.67806A2.22447,2.22447,0,0,0,67.26764,39.6059Z"
        transform="translate(-13.95762 -7.93929)" />
    <path
        d="M36.62353,86.727c-0.07862-.67-0.05514-1.34366-0.16918-2.0001-0.16057-.92435-0.19744-1.8708-0.3695-2.79243-0.3487-1.86771-.2965-3.78689-0.7518-5.6389a0.87658,0.87658,0,0,1,.0015-0.27674c0.01464-.16926-0.10125-0.453.14806-0.45955,0.30616-.00809.11422,0.271,0.13468,0.42826,0.16186,1.24332.31473,2.488,0.49782,3.72818a6.53879,6.53879,0,0,1,.06721.75162c0.00677,0.20925-.09965.54857,0.32724,0.50737,0.1001-.00967.12589,0.01679,0.051,0.0939-0.58115.59872-.10216,1.27691-0.05,1.87277,0.10327,1.18049.15888,2.37047,0.329,3.54666C36.85171,86.57167,36.8496,86.67219,36.62353,86.727Z"
        transform="translate(-13.95762 -7.93929)" />
    <path
        d="M57.93575,46.23533a0.98518,0.98518,0,0,1-.953.2764,59.48859,59.48859,0,0,0-7.87745.64305c-1.00544.12918-2.02647,0.15429-3.04168,0.18532-1.1531.03523-2.30006,0.21946-3.457,0.14449a31.44449,31.44449,0,0,1-4.177-.43423,3.67068,3.67068,0,0,1-.65941-0.28735,0.69634,0.69634,0,0,1,.795-0.02659,10.76908,10.76908,0,0,0,3.83023.47741,42.75775,42.75775,0,0,0,4.7038-.15626c1.53024-.15579,3.06033-0.31392,4.58879-0.486,1.6117-.18146,3.21979-0.3962,4.833-0.56237A3.00528,3.00528,0,0,1,57.93575,46.23533Z"
        transform="translate(-13.95762 -7.93929)" />
    <path
        d="M47.96919,48.02574c-1.601.05186-3.20241,0.15611-4.80274,0.141-1.62557-.01538-3.23979.1964-4.89949,0.18493C38.74411,48.01085,46.19678,47.72414,47.96919,48.02574Z"
        transform="translate(-13.95762 -7.93929)" />
    <path d="M45.19159,46.041l6.68861-.3693A17.1049,17.1049,0,0,1,45.19159,46.041Z"
        transform="translate(-13.95762 -7.93929)" />
    <path d="M51.93352,48.25988l4.86706-.96647A14.98388,14.98388,0,0,1,51.93352,48.25988Z"
        transform="translate(-13.95762 -7.93929)" />
    <path
        d="M44.77016,46.11837a2.73285,2.73285,0,0,1-1.6901-.06974A3.04443,3.04443,0,0,1,44.77016,46.11837Z"
        transform="translate(-13.95762 -7.93929)" />
    <path
        d="M64.89564,43.49a9.75435,9.75435,0,0,1-2.41844.6045,6.28374,6.28374,0,0,1,2.43137-.5928Z"
        transform="translate(-13.95762 -7.93929)" />
    <path
        d="M53.3078,82.97278a162.84647,162.84647,0,0,1,1.95784-18.00834C54.62162,70.96814,53.80861,76.95369,53.3078,82.97278Z"
        transform="translate(-13.95762 -7.93929)" />
    <path
        d="M56.75936,78.18742a97.25155,97.25155,0,0,1,1.76427-12.77883C57.93219,69.66574,57.3056,73.918,56.75936,78.18742Z"
        transform="translate(-13.95762 -7.93929)" />
    <path
        d="M52.26437,84.88857a41.095,41.095,0,0,1,.86788-9.55736C52.77077,78.51213,52.55122,81.70528,52.26437,84.88857Z"
        transform="translate(-13.95762 -7.93929)" />
    <path
        d="M52.9707,66.175c-0.20459-1.60222.843-7.333,1.40413-7.705A76.87954,76.87954,0,0,0,52.9707,66.175Z"
        transform="translate(-13.95762 -7.93929)" />
    <path d="M58.24908,70.58289l0.92148-6.94624A37.44208,37.44208,0,0,1,58.24908,70.58289Z"
        transform="translate(-13.95762 -7.93929)" />
    <path
        d="M57.20975,65.59642q-0.22581,2.62439-.4516,5.24875A22.495,22.495,0,0,1,57.20975,65.59642Z"
        transform="translate(-13.95762 -7.93929)" />
    <path d="M55.80631,58.81353a13.006,13.006,0,0,1-.71755,2.97349l0.49236-2.985Z"
        transform="translate(-13.95762 -7.93929)" />
    <path
        d="M40.3419,37.0807A0.4827,0.4827,0,0,1,39.809,37.32a5.78349,5.78349,0,0,0-1.966.27736c-0.138.03184-.30443,0.02389-0.30661,0.20258-0.002.16676,0.1601,0.18078,0.29258,0.23426a19.50807,19.50807,0,0,0,3.84828.9386c1.23218,0.22581,2.47339.4023,3.70277,0.66094a10.68318,10.68318,0,0,1-2.35594-.22335,40.32161,40.32161,0,0,1-4.57807-.83933,5.52683,5.52683,0,0,1-1.01227-.409,0.40946,0.40946,0,0,1-.27572-0.44,0.45905,0.45905,0,0,1,.38289-0.35959A10.24722,10.24722,0,0,1,40.3419,37.0807Z"
        transform="translate(-13.95762 -7.93929)" />
    <path
        d="M37.016,34.02063c1.81472,0.45247,3.64354.82394,5.44868,1.29578A22.1015,22.1015,0,0,1,37.016,34.02063Z"
        transform="translate(-13.95762 -7.93929)" />
    <path
        d="M47.13721,39.0565a17.39155,17.39155,0,0,1-3.949-.21193A35.31659,35.31659,0,0,1,47.13721,39.0565Z"
        transform="translate(-13.95762 -7.93929)" />
    <path
        d="M45.32993,34.33959A5.5135,5.5135,0,0,1,47.755,34.208,5.32536,5.32536,0,0,1,45.32993,34.33959Z"
        transform="translate(-13.95762 -7.93929)" />
    <path
        d="M64.35871,52.52457a10.8607,10.8607,0,0,1-3.03619.65636c-1.09244.1285-2.192,0.19778-3.28889,0.28668a0.33275,0.33275,0,0,0-.3961.28339c-0.00693.19186,0.15516,0.23237,0.333,0.26977a8.44771,8.44771,0,0,0,2.50237.209c1.38957-.1173,2.74215-0.4275,4.126-0.57726a5.80815,5.80815,0,0,1-2.16632.60235,13.25779,13.25779,0,0,1-3.49327.30826c-0.66716-.05-1.53146.07083-1.77022-0.92306-0.0627-.2609-0.29922-0.1017-0.46762-0.09625-1.125.03645-2.24217,0.25292-3.39538,0.19069a0.42483,0.42483,0,0,1,.55391-0.405c2.12547,0.086,4.23082-.25049,6.35153-0.3075C61.59739,52.98474,62.97654,52.699,64.35871,52.52457Z"
        transform="translate(-13.95762 -7.93929)" />
    <path
        d="M48.7606,52.36851a58.5254,58.5254,0,0,1-6.31637.81928,18.793,18.793,0,0,1-2.38931.28779c-0.17626-.00636-0.34892-0.05009-0.33881-0.2357a0.30363,0.30363,0,0,1,.32888-0.19434q4.23932-.36633,8.47821-0.73767A0.7577,0.7577,0,0,1,48.7606,52.36851Z"
        transform="translate(-13.95762 -7.93929)" />
    <path
        d="M35.19921,52.48346c-1.01405.18153-2.02174,0.42689-3.04373,0.52876-1.3433.13392-2.64508,0.48035-3.97661,0.66275-0.19867.02721-.49766,0.17061-0.5363-0.08656-0.04665-.3104.28972-0.2503,0.50343-0.2685,1.37032-.11662,2.71673-0.38869,4.07087-0.61384,0.98762-.16422,1.98484-0.27081,2.97779-0.40308Z"
        transform="translate(-13.95762 -7.93929)" />
    <path
        d="M50.30747,53.01181a11.84046,11.84046,0,0,1-3.116.59525c-1.087.15353-2.18521,0.22687-3.27507,0.36284-0.20336.02539-.40556,0.07628-0.45657-0.14362-0.07272-.31356.21665-0.1972,0.36314-0.226,0.94606-.18581,1.91244-0.06442,2.86848-0.216C47.88644,53.19482,49.10123,53.13029,50.30747,53.01181Z"
        transform="translate(-13.95762 -7.93929)" />
    <path d="M28.81125,54.77991a61.4631,61.4631,0,0,1,7.24622-1.06132L28.84893,55.065Z"
        transform="translate(-13.95762 -7.93929)" />
    <path
        d="M48.70094,55.04889a29.6503,29.6503,0,0,1-3.56957.51392A0.41241,0.41241,0,0,1,44.86,55.54895c-0.23508-.16812-0.80724-0.02654-0.695-0.45182,0.10183-.38573.4593,0.03743,0.68315,0.07353a11.57685,11.57685,0,0,0,2.6298-.105A11.438,11.438,0,0,1,48.70094,55.04889Z"
        transform="translate(-13.95762 -7.93929)" />
    <path
        d="M59.95208,55.63668a14.43147,14.43147,0,0,0,4.09566-.59438A6.2829,6.2829,0,0,1,59.95208,55.63668Z"
        transform="translate(-13.95762 -7.93929)" />
    <path d="M29.65692,55.30323a14.33536,14.33536,0,0,1,3.4651-.35136l-3.40606.61455Z"
        transform="translate(-13.95762 -7.93929)" />
    <path
        d="M24.02975,51.763a1.73377,1.73377,0,0,1-2.08295-1.86346C22.12521,51.13437,23.0515,51.46486,24.02975,51.763Z"
        transform="translate(-13.95762 -7.93929)" />
    <path
        d="M63.0161,56.15118a6.97493,6.97493,0,0,1-1.9394.52509,0.29774,0.29774,0,0,1-.377-0.29531c0.02024-.22288.186-0.2192,0.41059-0.17506A6.03633,6.03633,0,0,0,63.0161,56.15118Z"
        transform="translate(-13.95762 -7.93929)" />
    <path
        d="M45.84429,56.347a7.06418,7.06418,0,0,1,2.57073-.32033A6.17683,6.17683,0,0,1,45.84429,56.347Z"
        transform="translate(-13.95762 -7.93929)" />
    <path
        d="M67.87541,58.18474c0.06663,0.14191-.04512.33093,0.20089,0.43428,0.39979,0.16794.33-.35562,0.59466-0.35027l-0.00511-.00185a0.35656,0.35656,0,0,0,.0068.44894c0.39686,0.30646.28767,0.42957-.1384,0.46006a0.22679,0.22679,0,0,0-.23334.25394c-0.07864.44023-.202,0.87247-0.31243,1.32813a1.22266,1.22266,0,0,1,.06-0.80939c-0.0228-.31909.48257-0.771-0.34294-0.88695-0.26955-.03786.0868-0.56268,0.19436-0.85638Z"
        transform="translate(-13.95762 -7.93929)" />
    <path
        d="M65.29644,74.51326a7.48921,7.48921,0,0,1,3.65756-.35987Q67.12522,74.33332,65.29644,74.51326Z"
        transform="translate(-13.95762 -7.93929)" />
    <path
        d="M68.55683,55.63743a5.39028,5.39028,0,0,1-.681,2.54752l0.024,0.02031a14.4589,14.4589,0,0,1,.67444-2.54746Z"
        transform="translate(-13.95762 -7.93929)" />
    <path
        d="M68.671,58.26875c-0.50254-.62429.20848-1.04515,0.28588-1.572a2.70524,2.70524,0,0,1-.2918,1.56917Z"
        transform="translate(-13.95762 -7.93929)" />
    <path
        d="M28.76106,75.00666c-1.40128-5.12215-1.99987-10.44009-3.77078-15.47237C26.94922,64.51858,27.66959,69.80857,28.76106,75.00666Z"
        transform="translate(-13.95762 -7.93929)" />
    <path
        d="M29.23,63.76708a29.97012,29.97012,0,0,1,.66,3.80884c0.33486,1.772.5699,3.56277,0.8435,5.34615a1.11819,1.11819,0,0,1-.05932.283,21.263,21.263,0,0,1-.6102-3.22572c-0.30583-1.7986-.57535-3.6035-0.8425-5.40837a4.34045,4.34045,0,0,1,.03076-0.8186Z"
        transform="translate(-13.95762 -7.93929)" />
    <path
        d="M25.34781,62.20765A63.87044,63.87044,0,0,1,26.862,68.41383l-0.17613.04258-1.40495-6.19049Z"
        transform="translate(-13.95762 -7.93929)" />
    <path
        d="M29.25217,63.75238A8.39371,8.39371,0,0,1,28.791,61.8217a3.01083,3.01083,0,0,1-.28339-2.01439,0.27361,0.27361,0,0,1,.25558-0.245c0.15616,1.41107.31078,2.80822,0.4661,4.20506Z"
        transform="translate(-13.95762 -7.93929)" />
    <path
        d="M25.28089,62.26592a10.39358,10.39358,0,0,1-.68219-2.45526l0.17587-.04661,0.57325,2.44361Z"
        transform="translate(-13.95762 -7.93929)" />
    <path d="M45.14053,26.08381l1.53527,1.64209A4.13193,4.13193,0,0,1,45.14053,26.08381Z"
        transform="translate(-13.95762 -7.93929)" />
    <path d="M54.25689,29.42473H52.5795A2.05334,2.05334,0,0,1,54.25689,29.42473Z"
        transform="translate(-13.95762 -7.93929)" />
    <path
        d="M54.23359,14.76312a0.61929,0.61929,0,0,1,.68.1965,0.55761,0.55761,0,0,1-.21985.66881,5.54376,5.54376,0,0,1-.91225.83328,0.56733,0.56733,0,0,1-.748.02147,0.4427,0.4427,0,0,1,.0263-0.72126C53.44,15.389,53.49446,14.61359,54.23359,14.76312Z"
        transform="translate(-13.95762 -7.93929)" />
    <path
        d="M50.7473,20.97514a2.49807,2.49807,0,0,1,1.23383-1.62374c0.30225-.10431.54317,0.00376,0.45936,0.33373a3.3376,3.3376,0,0,1-.83785,1.74842,0.48072,0.48072,0,0,1-.62324.05885A0.44558,0.44558,0,0,1,50.7473,20.97514Z"
        transform="translate(-13.95762 -7.93929)" />
    <path
        d="M58.55065,15.18311a0.49211,0.49211,0,0,1,.53739.299c0.12325,0.26072-.12124.37444-0.26925,0.48482a3.31018,3.31018,0,0,1-1.32734.66851,0.42629,0.42629,0,0,1-.50985-0.18657,0.46956,0.46956,0,0,1,.059-0.62422A3.54481,3.54481,0,0,1,58.55065,15.18311Z"
        transform="translate(-13.95762 -7.93929)" />
    <path
        d="M52.275,23.49652a1.85769,1.85769,0,0,1-.62636.9838c-0.5004.30934-.68919-0.01161-0.83407-0.33476a1.47391,1.47391,0,0,1,1.14129-1.41582C52.26347,22.77594,52.36169,23.00918,52.275,23.49652Z"
        transform="translate(-13.95762 -7.93929)" />
    <path
        d="M55.65682,18.39832a0.41344,0.41344,0,0,1,.2892.51612,1.69186,1.69186,0,0,1-1.29786,1.23875,0.336,0.336,0,0,1-.3647-0.39063A2.90876,2.90876,0,0,1,55.65682,18.39832Z"
        transform="translate(-13.95762 -7.93929)" />
    <path
        d="M50.57,60.346c-0.71871.4968-1.46317,0.96081-2.14883,1.49967a11.22654,11.22654,0,0,0-1.99746,1.66522,0.45037,0.45037,0,0,1,.22022-0.67072,27.42707,27.42707,0,0,1,3.605-2.49774,0.3201,0.3201,0,0,1,.32759.011Z"
        transform="translate(-13.95762 -7.93929)" />
    <path
        d="M49.61993,59.33046c-1.11276.78728-1.99849,1.85517-3.13483,2.6171A9.08182,9.08182,0,0,1,49.61993,59.33046Z"
        transform="translate(-13.95762 -7.93929)" />
</svg>